<svg xmlns="http://www.w3.org/2000/svg" viewBox="0 0 551.641 422.974">
  <defs>
    <style>
      .cls-1, .cls-2, .cls-3, .cls-4, .cls-6 {
        fill: #fff;
        stroke: #281c64;
        stroke-width: 2px;
      }

      .cls-1, .cls-7 {
        opacity: 0.1;
      }

      .cls-2 {
        stroke-miterlimit: 10;
      }

      .cls-4 {
        opacity: 0.25;
      }

      .cls-5 {
        opacity: 0.2;
      }

      .cls-6 {
        opacity: 0.05;
      }
    </style>
  </defs>
  <g id="undraw_audit" transform="translate(1.138 0.992)">
    <ellipse id="Ellipse_36" data-name="Ellipse 36" class="cls-1" cx="55.667" cy="13.917" rx="55.667" ry="13.917" transform="translate(352.784 384.689)"/>
    <path id="Tracé_190" data-name="Tracé 190" class="cls-1" d="M45.394,302.78c-6.3,2.158-13.941,6.562-12.653,13.561.644,3.548,3.519,6.177,6.249,8.4a177.049,177.049,0,0,0,38.15,23.627c6.523,2.961,13.46,5.677,18.388,11.138s7.211,13.095,8.812,20.455a166.262,166.262,0,0,1,2.75,53.076c19.666.375,41.443-.067,55.36-14.234,8.331-8.485,12.8-21.07,22.594-27.637,6.533-4.379,14.585-5.466,22.363-6.379q55.22-6.456,111.013-7.817c15.585-.38,31.511-.514,46.063-5.946s27.762-17.306,30.718-33.405c.457-2.48.755-5.216,2.452-6.946,1.514-1.553,3.783-1.923,5.9-2.2l127.819-17.306c7-.961,14.244-1.985,20.137-5.942,5.7-3.846,9.547-9.989,13.225-15.979,8.427-13.71,17.171-30.285,11.335-45.962-4.668-12.528-17.215-19.743-29.2-24.223s-24.9-7.629-34.641-16.412C497.4,189.287,494.112,167.1,489.935,147.2a324.688,324.688,0,0,0-15.864-52.826c-5.98-15.066-13.263-29.915-24.118-41.64s-25.791-20.036-40.991-19.44c-19.854.788-37.318,16.263-57.206,14.34-16.8-1.61-30.463-15.071-45.587-23.445-26.848-14.878-58.537-13.571-87.914-8.932-31.151,4.908-62.494,13.5-87.731,32.819-5.769,4.423-11.287,9.528-14.676,16.181-5.192,10.206-4.745,22.642-7.345,33.982C98.023,143.9,41.836,162.953,30.285,208.29c-4.105,16.094-1.067,33.549,6.466,48.423,8.1,16.013,24.373,22.839,32.713,36.583C63.887,298.387,52.777,300.247,45.394,302.78Z" transform="translate(-28.45 -12.11)"/>
    <path id="Tracé_191" data-name="Tracé 191" class="cls-2" d="M897.731,734.39s-5.038-34.708,10.1-57.552a53.12,53.12,0,0,0,8.98-32.391,89.127,89.127,0,0,0-2.452-16.157" transform="translate(-479.434 -332.082)"/>
    <path id="Tracé_192" data-name="Tracé 192" class="cls-3" d="M936.914,588.99c-.582,4.081-9.667,14.859-9.667,14.859s-5.677-12.9-5.11-16.979a7.465,7.465,0,1,1,14.779,2.12Z" transform="translate(-492.505 -307.246)"/>
    <path id="Tracé_193" data-name="Tracé 193" class="cls-3" d="M954.105,635.5c-2.711,3.105-16.2,7.211-16.2,7.211s2.231-13.941,4.937-17.027a7.467,7.467,0,1,1,11.258,9.811Z" transform="translate(-500.716 -329.398)"/>
    <path id="Tracé_194" data-name="Tracé 194" class="cls-3" d="M939.963,713.51c-3.908,1.317-17.623-1.923-17.623-1.923s8.951-10.893,12.859-12.206a7.466,7.466,0,0,1,4.764,14.128Z" transform="translate(-492.631 -368.855)"/>
    <path id="Tracé_195" data-name="Tracé 195" class="cls-3" d="M916.645,772.445c-3.629,1.957-17.7,1.058-17.7,1.058s6.98-12.244,10.61-14.2a7.466,7.466,0,0,1,7.086,13.143Z" transform="translate(-480.485 -399.649)"/>
    <path id="Tracé_196" data-name="Tracé 196" class="cls-3" d="M903.715,647.9c2.519,3.264,15.739,8.172,15.739,8.172s-1.4-14.027-3.923-17.306a7.467,7.467,0,1,0-11.816,9.134Z" transform="translate(-482.15 -336.016)"/>
    <path id="Tracé_197" data-name="Tracé 197" class="cls-3" d="M875.669,715.022c3.365,2.36,17.455,3.081,17.455,3.081s-5.528-12.979-8.912-15.325a7.465,7.465,0,1,0-8.543,12.245Z" transform="translate(-466.736 -370.064)"/>
    <path id="Tracé_198" data-name="Tracé 198" class="cls-3" d="M860.351,786.288c2.932,2.884,16.686,5.985,16.686,5.985s-3.259-13.715-6.2-16.6A7.465,7.465,0,1,0,860.35,786.3Z" transform="translate(-459.288 -407.497)"/>
    <path id="Tracé_199" data-name="Tracé 199" class="cls-4" d="M936.914,588.99c-.582,4.081-9.667,14.859-9.667,14.859s-5.677-12.9-5.11-16.979a7.465,7.465,0,1,1,14.779,2.12Z" transform="translate(-492.505 -307.246)"/>
    <path id="Tracé_200" data-name="Tracé 200" class="cls-4" d="M954.105,635.5c-2.711,3.105-16.2,7.211-16.2,7.211s2.231-13.941,4.937-17.027a7.467,7.467,0,1,1,11.258,9.811Z" transform="translate(-500.716 -329.398)"/>
    <path id="Tracé_201" data-name="Tracé 201" class="cls-4" d="M939.963,713.51c-3.908,1.317-17.623-1.923-17.623-1.923s8.951-10.893,12.859-12.206a7.466,7.466,0,0,1,4.764,14.128Z" transform="translate(-492.631 -368.855)"/>
    <path id="Tracé_202" data-name="Tracé 202" class="cls-4" d="M916.645,772.445c-3.629,1.957-17.7,1.058-17.7,1.058s6.98-12.244,10.61-14.2a7.466,7.466,0,0,1,7.086,13.143Z" transform="translate(-480.485 -399.649)"/>
    <path id="Tracé_203" data-name="Tracé 203" class="cls-4" d="M903.715,647.9c2.519,3.264,15.739,8.172,15.739,8.172s-1.4-14.027-3.923-17.306a7.467,7.467,0,1,0-11.816,9.134Z" transform="translate(-482.15 -336.016)"/>
    <path id="Tracé_204" data-name="Tracé 204" class="cls-4" d="M875.669,715.022c3.365,2.36,17.455,3.081,17.455,3.081s-5.528-12.979-8.912-15.325a7.465,7.465,0,1,0-8.543,12.245Z" transform="translate(-466.736 -370.064)"/>
    <path id="Tracé_205" data-name="Tracé 205" class="cls-4" d="M860.351,786.288c2.932,2.884,16.686,5.985,16.686,5.985s-3.259-13.715-6.2-16.6A7.465,7.465,0,1,0,860.35,786.3Z" transform="translate(-459.288 -407.497)"/>
    <path id="Tracé_206" data-name="Tracé 206" class="cls-2" d="M869.472,734.644S850.8,704.955,855.4,677.919a53.12,53.12,0,0,0-4.9-33.242A89.177,89.177,0,0,0,841.71,630.9" transform="translate(-450.762 -333.437)"/>
    <path id="Tracé_207" data-name="Tracé 207" class="cls-3" d="M831.694,589.537c1.115,3.971-2.822,17.5-2.822,17.5s-10.432-9.48-11.537-13.46a7.468,7.468,0,0,1,14.374-4.057Z" transform="translate(-437.957 -309.125)"/>
    <path id="Tracé_208" data-name="Tracé 208" class="cls-3" d="M869.417,623.741c-1.216,3.937-11.879,13.157-11.879,13.157s-3.605-13.624-2.4-17.565a7.467,7.467,0,0,1,14.268,4.408Z" transform="translate(-457.605 -324.697)"/>
    <path id="Tracé_209" data-name="Tracé 209" class="cls-3" d="M887.817,698.643c-3.038,2.783-16.9,5.36-16.9,5.36s3.769-13.58,6.807-16.344a7.468,7.468,0,1,1,10.1,11.008Z" transform="translate(-465.93 -361.891)"/>
    <path id="Tracé_210" data-name="Tracé 210" class="cls-3" d="M891.558,762.366c-2.524,3.259-15.748,8.139-15.748,8.139s1.442-14.023,3.942-17.306a7.466,7.466,0,1,1,11.806,9.134Z" transform="translate(-468.469 -395.367)"/>
    <path id="Tracé_211" data-name="Tracé 211" class="cls-3" d="M825.246,656.843c3.625,1.966,17.69,1.086,17.69,1.086s-6.961-12.254-10.576-14.215a7.466,7.466,0,0,0-7.115,13.128Z" transform="translate(-440.182 -339.622)"/>
    <path id="Tracé_212" data-name="Tracé 212" class="cls-3" d="M826.61,729.546c4.048.788,17.21-4.254,17.21-4.254s-10.311-9.614-14.359-10.4a7.466,7.466,0,1,0-2.851,14.652Z" transform="translate(-439.695 -376.963)"/>
    <path id="Tracé_213" data-name="Tracé 213" class="cls-3" d="M842.061,801.07c3.846,1.442,17.681-1.293,17.681-1.293s-8.538-11.21-12.393-12.672a7.466,7.466,0,0,0-5.288,13.941Z" transform="translate(-448.632 -414.367)"/>
    <path id="Tracé_214" data-name="Tracé 214" class="cls-3" d="M285.63,57.83V396.959H529.547V57.83Z" transform="translate(-148.324 -30.032)"/>
    <rect id="Rectangle_17" data-name="Rectangle 17" class="cls-3" width="239.639" height="12.927" transform="translate(139.445 30.774)"/>
    <g id="Groupe_6" data-name="Groupe 6" class="cls-5" transform="translate(139.445 30.774)">
      <rect id="Rectangle_18" data-name="Rectangle 18" class="cls-3" width="239.639" height="12.927"/>
    </g>
    <rect id="Rectangle_19" data-name="Rectangle 19" class="cls-3" width="239.639" height="320.251" transform="translate(139.445 43.7)"/>
    <circle id="Ellipse_37" data-name="Ellipse 37" class="cls-3" cx="2.192" cy="2.192" r="2.192" transform="translate(143.556 35.047)"/>
    <circle id="Ellipse_38" data-name="Ellipse 38" class="cls-3" cx="2.192" cy="2.192" r="2.192" transform="translate(149.497 35.047)"/>
    <circle id="Ellipse_39" data-name="Ellipse 39" class="cls-3" cx="2.192" cy="2.192" r="2.192" transform="translate(155.439 35.047)"/>
    <g id="Groupe_7" data-name="Groupe 7" class="cls-5" transform="translate(182.215 63.444)">
      <rect id="Rectangle_20" data-name="Rectangle 20" class="cls-3" width="154.095" height="6.033"/>
    </g>
    <rect id="Rectangle_21" data-name="Rectangle 21" class="cls-3" width="20.474" height="6.033" transform="translate(315.836 63.444)"/>
    <g id="Groupe_8" data-name="Groupe 8" class="cls-5" transform="translate(162.294 97.81)">
      <rect id="Rectangle_22" data-name="Rectangle 22" class="cls-3" width="193.942" height="69.459"/>
    </g>
    <rect id="Rectangle_23" data-name="Rectangle 23" class="cls-3" width="111.868" height="6.033" transform="translate(216.721 123.125)"/>
    <rect id="Rectangle_24" data-name="Rectangle 24" class="cls-3" width="58.037" height="6.033" transform="translate(216.721 135.922)"/>
    <rect id="Rectangle_25" data-name="Rectangle 25" class="cls-3" width="20.474" height="6.033" transform="translate(315.836 154.199)"/>
    <circle id="Ellipse_40" data-name="Ellipse 40" class="cls-3" cx="10.965" cy="10.965" r="10.965" transform="translate(174.725 121.572)"/>
    <g id="Groupe_9" data-name="Groupe 9" class="cls-5" transform="translate(162.294 186.739)">
      <rect id="Rectangle_26" data-name="Rectangle 26" class="cls-3" width="193.942" height="69.459"/>
    </g>
    <rect id="Rectangle_27" data-name="Rectangle 27" class="cls-3" width="111.868" height="6.033" transform="translate(216.721 212.053)"/>
    <rect id="Rectangle_28" data-name="Rectangle 28" class="cls-3" width="58.037" height="6.033" transform="translate(216.721 224.85)"/>
    <rect id="Rectangle_29" data-name="Rectangle 29" class="cls-3" width="20.474" height="6.033" transform="translate(315.836 243.127)"/>
    <circle id="Ellipse_41" data-name="Ellipse 41" class="cls-3" cx="10.965" cy="10.965" r="10.965" transform="translate(174.725 210.501)"/>
    <g id="Groupe_10" data-name="Groupe 10" class="cls-5" transform="translate(162.294 275.667)">
      <rect id="Rectangle_30" data-name="Rectangle 30" class="cls-3" width="193.942" height="69.459"/>
    </g>
    <rect id="Rectangle_31" data-name="Rectangle 31" class="cls-3" width="111.868" height="6.033" transform="translate(216.721 300.982)"/>
    <rect id="Rectangle_32" data-name="Rectangle 32" class="cls-3" width="58.037" height="6.033" transform="translate(216.721 313.778)"/>
    <rect id="Rectangle_33" data-name="Rectangle 33" class="cls-3" width="20.474" height="6.033" transform="translate(315.836 332.055)"/>
    <circle id="Ellipse_42" data-name="Ellipse 42" class="cls-3" cx="10.965" cy="10.965" r="10.965" transform="translate(174.725 299.429)"/>
    <path id="Tracé_215" data-name="Tracé 215" class="cls-3" d="M185.019,326.973c-1.86,8.465-5.216,18.9-5.216,18.9,3.317,3.87,17.787,4.562,17.787,4.562l.024-.029h.226c.1.534.216,1.048.356,1.538q-.038.726-.072,1.471a4.014,4.014,0,0,0-.207,1.807,4.1,4.1,0,0,0,.106.4c-.346,7.663-.591,15.835-.38,20.556a19.782,19.782,0,0,0,.409,3.98,14.33,14.33,0,0,1,.423,3.053c.236,6.908-1.442,18.512-1.442,18.512s.043.159.067.24c-.029.2-.048.313-.048.313a5.476,5.476,0,0,1,.245,1.442c.125,5.826-3.216,18.5-3.216,18.5s-2.7,19.493-2.317,26.92a17.121,17.121,0,0,0,.13,1.774c.827,6.177,1.923,23.425,1.923,23.425a7.744,7.744,0,0,0,.63.813c-.1.385-.212.774-.337,1.158a32.5,32.5,0,0,0-1.61,12.076c.034.481.072,1,.12,1.534.553,6.365,15.95,2.4,16.965,1.663.346-.255.1-2.562-.375-5.49l15.864,3.918s11.249,1.663,16.6,0,5.163-6.249-2.49-7c-5.36-.519-9.614-5.509-11.715-8.456.812-2.216,6.9-19.036,8.023-29.449a147.418,147.418,0,0,1,3.553-19.96l1.2-15.494,2.125-9.134,2.533-12.076c2.86-8.855,3.735-23.656,3.735-23.656l2.211-14.523a28.118,28.118,0,0,0,.514-4.788,53.671,53.671,0,0,1,6.129,1.639c3.461-2.692-1.442-28.632-1.442-28.632s-2.36-16.383-4.36-31.319a30.608,30.608,0,0,1,9.547.389l29.05.639a14.769,14.769,0,0,0,1.558-2.538h1.245a2.667,2.667,0,0,0,.361-.7l.514.1a42.969,42.969,0,0,1,5.557,1.687s9.163,1.106,7.778-8.5c-1.029-7.163-9.182-4.562-13.258-2.783l-.514.236c-.038-.269-.062-.423-.062-.423l-1.312.24a6.332,6.332,0,0,0-.274-.587s-14.249-.553-25.8-2.283c-8.216-1.231-14.422-5.927-17.34-8.533-2.024-10.273-7.9-13.393-7.9-13.393A17.592,17.592,0,0,1,232.816,248a16.935,16.935,0,0,1-1.875-1.3l-.317.183-.038-.034c1.957-1.817,3.985-3.485,5.769-4.884l.8-.62a17.82,17.82,0,0,0,14.556-24.954c-.077-.173-.168-.346-.25-.514a4,4,0,0,0,3.528-3.476c.178-2.014-1.211-4.158-.3-5.966a5.8,5.8,0,0,0,.433-.841,2.274,2.274,0,0,0,.067-.846,5.956,5.956,0,0,0-2.4-4.326c-2.062-1.5-3.894-.736-6.148-.865a74.221,74.221,0,0,1-7.754-1.2,26.814,26.814,0,0,0-8.908-.293,11.479,11.479,0,0,0-7.528,4.408c-.731,1.048-1.226,2.245-1.923,3.327-.784,1.25-1.8,2.331-2.7,3.495a10.6,10.6,0,0,0-2.62,6.773c.067,1.4.562,2.745.659,4.144a25.237,25.237,0,0,1-.288,3.894,17.046,17.046,0,0,0,.284,4.966,3.076,3.076,0,0,0,.567,1.413,3.014,3.014,0,0,0,1.25.8,11.173,11.173,0,0,0,1.534.481,21.963,21.963,0,0,1-2.149,3.87l-.779-.808-2.106,3.288-.082-.221c-.1.207-.216.4-.336.6l-.216-.6a12.64,12.64,0,0,1-4.716,4.721c-5.509,3.461-13.2,4.894-13.2,4.894-12.383,1.8-10.1,14.59-10.1,14.59s-5.254,22.825-6.73,36.934,4.009,23.1,4.009,23.1Zm59.056-41.717c.481,1.572.9,3.062,1.264,4.365l-.231.091c-.264-1.207-.625-2.755-1.019-4.456Zm-13.624-38.3-.067.043.062-.062Zm-21.358,238.5c-.606-3.62-1.509-7.99-2.067-10.6.394-1.284.918-3.245,1.534-6.163,1.384-6.543,2.211-29.694,2.211-29.694L214,419.55a64.153,64.153,0,0,0,3.6-16.344c1.187-3.134,3.932-22.32,4.37-25.4-.125,2.13-.423,7.523-.582,13.513v.163c-.12,4.524-.154,9.374,0,13.4h0c.043,1.13.1,2.2.178,3.192.024.255.038.519.048.779.346,10.432-4.326,23.555-4.326,23.555s-2.082,9.73-1.774,15.167a10.01,10.01,0,0,0,.413,2.884,5.1,5.1,0,0,1,.236,1.336c.087,5.2-2.985,16.119-3.769,18.8C210.679,474.117,209.405,483.111,209.093,485.457Z" transform="translate(-106.399 -108.536)"/>
    <path id="Tracé_216" data-name="Tracé 216" class="cls-3" d="M259.467,763.279s5.394,9.778,12.979,10.509,7.768,5.288,2.466,6.946-16.45,0-16.45,0l-15.9-3.927s1.923-15.72,4.475-16.542S259.467,763.279,259.467,763.279Z" transform="translate(-139.635 -400.554)"/>
    <path id="Tracé_217" data-name="Tracé 217" class="cls-3" d="M222.325,765.781s4.024,18.094,3.019,18.83-16.268,4.658-16.825-1.649c-.048-.524-.087-1.033-.115-1.519a32.035,32.035,0,0,1,1.6-11.97,9.917,9.917,0,0,0,.62-3.692C210.355,763.243,222.325,765.781,222.325,765.781Z" transform="translate(-121.871 -402.893)"/>
    <path id="Tracé_218" data-name="Tracé 218" class="cls-3" d="M247.79,266.749s12.335,30.285,10.143,20.575c-1.442-6.451,7.937-15.013,14.422-20.046,3.3-2.567,5.86-4.216,5.86-4.216s-23.171-27.007-21.527-15.354a17.547,17.547,0,0,1-1.264,9.4,24.652,24.652,0,0,1-7.634,9.638Z" transform="translate(-142.351 -132.938)"/>
    <path id="Tracé_219" data-name="Tracé 219" class="cls-3" d="M411.77,367.811a7.091,7.091,0,0,1,2.822.178,41.646,41.646,0,0,1,5.5,1.673s9.086,1.1,7.691-8.427c-1.019-7.105-9.1-4.528-13.138-2.759-1.375.6-2.288,1.111-2.288,1.111Z" transform="translate(-227.502 -190.961)"/>
    <path id="Tracé_220" data-name="Tracé 220" class="cls-1" d="M411.77,369.916a7.09,7.09,0,0,1,2.822.178c.985-2.495.236-8.4.077-9.513-1.375.6-2.288,1.11-2.288,1.11Z" transform="translate(-227.502 -193.065)"/>
    <path id="Tracé_221" data-name="Tracé 221" class="cls-3" d="M410.881,360.658l2.375-.437s1.221,8.172-.37,10.307H410.15Z" transform="translate(-226.661 -192.878)"/>
    <path id="Tracé_222" data-name="Tracé 222" class="cls-3" d="M310.422,390.365s7.268-4.326,8.134,1.139,2.014,14.854,2.014,14.854l2.009,11.927,2.605,23.9-.365,4.067s-7.725-2.586-9.552-1.692-3.293-10.028-3.293-10.028L308.961,423.2l-.481-24.036Z" transform="translate(-173.866 -207.688)"/>
    <path id="Tracé_223" data-name="Tracé 223" class="cls-1" d="M310.422,390.365s7.268-4.326,8.134,1.139,2.014,14.854,2.014,14.854l2.009,11.927,2.605,23.9-.365,4.067s-7.725-2.586-9.552-1.692-3.293-10.028-3.293-10.028L308.961,423.2l-.481-24.036Z" transform="translate(-173.866 -207.688)"/>
    <path id="Tracé_224" data-name="Tracé 224" class="cls-3" d="M320.65,333.56s7.543,8.5,18.988,10.215,25.57,2.259,25.57,2.259a12.4,12.4,0,0,1-1.577,13.162l-28.79-.635s-6.374-1.384-11.311,0Z" transform="translate(-180.185 -179.034)"/>
    <path id="Tracé_225" data-name="Tracé 225" class="cls-6" d="M320.65,333.56s7.543,8.5,18.988,10.215,25.57,2.259,25.57,2.259a12.4,12.4,0,0,1-1.577,13.162l-28.79-.635s-6.374-1.384-11.311,0Z" transform="translate(-180.185 -179.034)"/>
    <path id="Tracé_226" data-name="Tracé 226" class="cls-2" d="M450.84,406.14" transform="translate(-247.79 -216.724)"/>
    <path id="Tracé_227" data-name="Tracé 227" class="cls-1" d="M266.187,256.867c2.812,6.014,7.691,10.451,14.787,10.451h.923c3.3-2.567,5.86-4.216,5.86-4.216S264.586,236.1,266.23,247.748C266.735,251.291,267.316,254.189,266.187,256.867Z" transform="translate(-151.883 -132.958)"/>
    <path id="Tracé_228" data-name="Tracé 228" class="cls-3" d="M260.25,234.657a17.623,17.623,0,1,0,5.165-12.5A17.662,17.662,0,0,0,260.25,234.657Z" transform="translate(-148.821 -118.507)"/>
    <path id="Tracé_229" data-name="Tracé 229" class="cls-3" d="M237.8,380.761s39.39,3.476,40.861-1.553-4.019-18.642-4.019-18.642l1.759-19.012.067-.731s-4.923-20.565-4.759-22.19c.168-1.476-7.946-18.748-9.614-22.262l-.3-.635-.312.183-.135.082-1.923,1.125-7.629-1.8-9.182-4.807-.87,52.591Z" transform="translate(-137.163 -156.685)"/>
    <path id="Tracé_230" data-name="Tracé 230" class="cls-1" d="M278.567,302.563a3.139,3.139,0,0,1,3.75,1.966,27.713,27.713,0,0,0,1.442,3.365l1.053,6.249,1.923,9.869,1.413,43.746-.635,7.788-3.519-6.249-.639-40.861v-5.1a36.876,36.876,0,0,0-2.932-12.768l-.481-1.149-3.062-3.927Z" transform="translate(-157.457 -162.891)"/>
    <path id="Tracé_231" data-name="Tracé 231" class="cls-3" d="M279.7,301.422a3.139,3.139,0,0,1,3.75,1.966,27.711,27.711,0,0,0,1.442,3.365L285.941,313l1.923,9.869,1.418,43.745-.644,7.768-3.519-6.249-.639-40.861v-5.1a36.872,36.872,0,0,0-2.928-12.768l-.481-1.149L278,304.35Z" transform="translate(-158.038 -162.299)"/>
    <path id="Tracé_232" data-name="Tracé 232" class="cls-1" d="M253.628,278s9.321,9.874,12.609,11.057c0,0-1.644,7.494-3.288,8.956,0,0-9.783-9.975-11.537-10.783l-1.442-3.553Z" transform="translate(-143.483 -150.183)"/>
    <path id="Tracé_233" data-name="Tracé 233" class="cls-3" d="M253.628,276.9s9.321,9.874,12.609,11.057c0,0-1.644,7.494-3.288,8.956,0,0-9.783-9.975-11.537-10.783l-1.442-3.553Z" transform="translate(-143.483 -149.612)"/>
    <path id="Tracé_234" data-name="Tracé 234" class="cls-1" d="M286.58,301.35l.1.255,2.99,8.009L295,324.737s.053.154.144.442c.884,2.75,5.644,17.676,6.581,22.017l.067-.731s-4.918-20.584-4.754-22.209c.168-1.476-7.946-18.748-9.614-22.262-.264-.183-.481-.337-.615-.452Z" transform="translate(-162.494 -162.308)"/>
    <path id="Tracé_235" data-name="Tracé 235" class="cls-3" d="M287.71,301.33,290.8,309.6l5.341,15.123s.053.154.144.442c.937,2.932,6.278,19.661,6.73,22.724.481,3.365,7.211,21.527,7.211,21.527l3.846,31.463c3.428-2.673-1.442-28.362-1.442-28.362s-5.485-38.111-6.783-50.788-8.331-16.426-8.331-16.426a17.453,17.453,0,0,1-7.941-2.687A16.951,16.951,0,0,1,287.71,301.33Z" transform="translate(-163.08 -162.298)"/>
    <path id="Tracé_236" data-name="Tracé 236" class="cls-1" d="M207.046,587.6c.822,6.124,1.923,23.219,1.923,23.219,3.846,5.769,12.34,2.649,12.34,2.649s.909-1.74,2.279-8.23,2.2-29.43,2.2-29.43l3.2-19.282a63.58,63.58,0,0,0,3.562-16.176c1.279-3.365,4.389-25.594,4.389-25.594s-1.284,19.926-.481,30.434-4.2,24.68-4.2,24.68-2.836,13.253-1.37,17.364-3.658,21.113-3.658,21.113c.457,4.937,14.989,2.923,14.989,2.923s6.855-18.368,8.042-29.43a146.073,146.073,0,0,1,3.524-19.786l1.183-15.354,2.106-9.047,2.514-11.97c2.831-8.778,3.7-23.445,3.7-23.445l2.192-14.393c1.442-7.119-.418-15.465-1.668-19.849-.538-1.889-.961-3.048-.961-3.048-1.259.894-8.47,1.923-12.2,2.793a21.23,21.23,0,0,1-6.249.481,138.847,138.847,0,0,1-27.834-5.091l-.961-.288-.192,1.644-.452,3.923-.8,6.956s-2.471,37.107-1.01,42.135-1,21.916-1,21.916c1.37,4.009-2.923,20.306-2.923,20.306S206.224,581.477,207.046,587.6Z" transform="translate(-121.119 -246.167)"/>
    <path id="Tracé_237" data-name="Tracé 237" class="cls-3" d="M207.047,586.456c.822,6.124,1.923,23.219,1.923,23.219,3.846,5.769,12.34,2.649,12.34,2.649s.909-1.74,2.279-8.23,2.2-29.43,2.2-29.43l3.2-19.282a63.58,63.58,0,0,0,3.562-16.176c1.279-3.365,4.389-25.594,4.389-25.594s-1.284,19.926-.481,30.434-4.2,24.68-4.2,24.68-2.836,13.253-1.37,17.364-3.658,21.113-3.658,21.113c.457,4.937,14.989,2.923,14.989,2.923s6.855-18.368,8.042-29.43a146.072,146.072,0,0,1,3.524-19.786l1.183-15.354,2.106-9.047,2.514-11.97c2.831-8.778,3.7-23.445,3.7-23.445l2.192-14.4c1.442-7.115-.418-15.46-1.668-19.844-.538-1.889-.961-3.048-.961-3.048-1.259.894-8.47,1.923-12.2,2.793a21.227,21.227,0,0,1-6.249.481,138.845,138.845,0,0,1-27.834-5.091l-.961-.288-.192,1.644-.452,3.923-.8,6.956s-2.471,37.107-1.01,42.135-.99,21.921-.99,21.921c1.37,4.009-2.923,20.306-2.923,20.306S206.225,580.337,207.047,586.456Z" transform="translate(-121.12 -245.575)"/>
    <path id="Tracé_238" data-name="Tracé 238" class="cls-1" d="M260.25,234.631a17.623,17.623,0,0,0,2.341,8.783,9.313,9.313,0,0,0,7.759-1.87c1.409-1.24,2.317-2.937,3.529-4.375a25.71,25.71,0,0,1,2.524-2.49,7.816,7.816,0,0,1,1.99-1.442,2.7,2.7,0,0,1,2.4-.029c.961.543,1.308,1.75,1.856,2.716a3.625,3.625,0,0,0,2.024,1.764,2.144,2.144,0,0,0,2.4-.822c.6-1.029.159-2.634,1.163-3.259a6.056,6.056,0,0,1,.817-.332c1.293-.586,1.442-2.322,1.548-3.735a2.338,2.338,0,0,1,.793-1.86,3.574,3.574,0,0,1,2.048-.168,2.883,2.883,0,0,0,.615-.053,17.662,17.662,0,0,0-33.809,7.158Z" transform="translate(-148.821 -118.481)"/>
    <path id="Tracé_239" data-name="Tracé 239" class="cls-3" d="M292.568,203.152a5.865,5.865,0,0,1,2.38,4.269,2.245,2.245,0,0,1-.062.841,6.251,6.251,0,0,1-.428.836c-.9,1.788.481,3.913.3,5.913a3.932,3.932,0,0,1-3.846,3.452,3.762,3.762,0,0,0-2.048.168,2.279,2.279,0,0,0-.793,1.86c-.111,1.418-.255,3.154-1.548,3.735a6.785,6.785,0,0,0-.817.337c-1,.625-.562,2.235-1.163,3.254a2.139,2.139,0,0,1-2.4.827,3.644,3.644,0,0,1-2.024-1.764c-.553-.961-.885-2.173-1.856-2.716a2.716,2.716,0,0,0-2.4.024,7.835,7.835,0,0,0-1.99,1.442,26.262,26.262,0,0,0-2.524,2.49c-1.211,1.442-2.12,3.134-3.533,4.375-2.654,2.331-6.73,2.562-10,1.235a3.058,3.058,0,0,1-1.24-.793,3.1,3.1,0,0,1-.577-1.423,17.084,17.084,0,0,1-.284-4.923,24.842,24.842,0,0,0,.288-3.846c-.091-1.384-.586-2.721-.654-4.105a10.59,10.59,0,0,1,2.6-6.73c.894-1.154,1.9-2.226,2.673-3.461.673-1.072,1.163-2.259,1.889-3.3a11.549,11.549,0,0,1,7.461-4.37,26.11,26.11,0,0,1,8.831.288,72.651,72.651,0,0,0,7.691,1.192C288.708,202.4,290.525,201.643,292.568,203.152Z" transform="translate(-146.268 -109.947)"/>
    <path id="Tracé_240" data-name="Tracé 240" class="cls-1" d="M287.71,301.33,290.8,309.6l5.341,15.123s.053.154.144.442h0l-6.73-22.551A16.957,16.957,0,0,1,287.71,301.33Z" transform="translate(-163.08 -162.298)"/>
    <path id="Tracé_241" data-name="Tracé 241" class="cls-3" d="M218.307,493.947s-.322,10,2.375,12.5l7.172-13.527L221.826,490Z" transform="translate(-127.035 -260.271)"/>
    <path id="Tracé_242" data-name="Tracé 242" class="cls-1" d="M183.48,390.239c3.293,3.846,17.614,4.524,17.614,4.524l14.2-22.344s3.365-2.332,9.658-12.821,6.1-18.575,5.769-24.608-4.326-23.377-4.326-23.377c-.61-3.9-9.451-28.362-9.451-28.362a12.531,12.531,0,0,1-4.677,4.677c-5.456,3.418-13.085,4.817-13.085,4.817-12.273,1.783-10.009,14.465-10.009,14.465s-.149,49.307.62,55.2S183.48,390.239,183.48,390.239Z" transform="translate(-108.956 -152.909)"/>
    <path id="Tracé_243" data-name="Tracé 243" class="cls-3" d="M189.49,483.77l.409,3.653,4.985-1.827,3.653-5.528-2.74-2.149Z" transform="translate(-98.4 -248.176)"/>
    <path id="Tracé_244" data-name="Tracé 244" class="cls-1" d="M218.3,467.314l2.606.264,25.132,2.509a40.713,40.713,0,0,0,12.076-.591l11.648-2.332c-.538-1.889-.961-3.048-.961-3.048-1.259.894-8.47,1.923-12.2,2.793a21.227,21.227,0,0,1-6.249.481,138.845,138.845,0,0,1-27.867-5.091l-1.135,1.356Z" transform="translate(-127.037 -245.887)"/>
    <g id="Groupe_11" data-name="Groupe 11" class="cls-7" transform="translate(85.736 216.125)">
      <path id="Tracé_245" data-name="Tracé 245" class="cls-3" d="M322.75,466.219a2.628,2.628,0,0,0,.245-.139l.024.067Z" transform="translate(-267.012 -463.974)"/>
      <path id="Tracé_246" data-name="Tracé 246" class="cls-3" d="M209.162,558.579s4.3-16.3,2.923-20.306c0,0,2.471-16.888,1-21.916s1.01-42.135,1.01-42.135l.812-6.956.481-3.923.192-1.644s.327.106.961.288l.582.173-.135.644-.457,3.923-.812,6.956s-2.466,37.1-1.01,42.135-1,21.916-1,21.916c1.37,4.009-2.923,20.306-2.923,20.306s-3.019,21.757-2.2,27.882,1.923,23.214,1.923,23.214c2.8,4.211,8.1,3.682,10.739,3.091-.029.072-.048.111-.048.111s-8.5,3.105-12.34-2.649c0,0-1.1-17.094-1.923-23.219S209.162,558.579,209.162,558.579Z" transform="translate(-206.804 -461.7)"/>
      <path id="Tracé_247" data-name="Tracé 247" class="cls-3" d="M252.8,641.576c-1.442-4.11,1.375-17.364,1.375-17.364s5.019-14.167,4.2-24.68c-.341-4.379-.317-10.388-.173-15.912,1.168-7.115,2.279-15.071,2.279-15.071s-1.284,19.921-.457,30.434-4.2,24.68-4.2,24.68-2.836,13.253-1.37,17.364-3.658,21.113-3.658,21.113c.365,3.956,9.759,3.452,13.46,3.091l-.139.38s-14.532,2.014-14.984-2.923C249.149,662.689,254.264,645.682,252.8,641.576Z" transform="translate(-228.783 -517.185)"/>
    </g>
    <path id="Tracé_248" data-name="Tracé 248" class="cls-3" d="M182.34,390.239c3.293,3.846,17.614,4.524,17.614,4.524l14.191-22.344s3.365-2.332,9.662-12.821,6.1-18.575,5.769-24.608-4.326-23.377-4.326-23.377c-.611-3.9-9.451-28.362-9.451-28.362a12.531,12.531,0,0,1-4.677,4.677c-5.461,3.418-13.08,4.817-13.08,4.817-12.273,1.783-10.009,14.465-10.009,14.465s-.135,49.288.62,55.182S182.34,390.239,182.34,390.239Z" transform="translate(-108.364 -152.909)"/>
    <path id="Tracé_249" data-name="Tracé 249" class="cls-1" d="M244.252,295.369l3.086,1.163-2.057,1.442,15.345,37.015c-.356-6.033-4.326-23.377-4.326-23.377-.611-3.9-9.451-28.362-9.451-28.362a12.531,12.531,0,0,1-4.677,4.677Z" transform="translate(-139.432 -152.909)"/>
    <path id="Tracé_250" data-name="Tracé 250" class="cls-1" d="M191.178,429.153l-15.7-4.043-2.057,6.374,16.042,3.908Z" transform="translate(-90.055 -220.753)"/>
    <path id="Tracé_251" data-name="Tracé 251" class="cls-1" d="M199.819,312.9s7.129,6.73,4.456,21.661-6.99,31.189-6.99,31.189L208.895,397.9s-8.091,8.432-12.066,9.456l-11.585-25.7s-5.413-8.913-3.976-22.892,6.648-36.607,6.648-36.607S187.892,308.371,199.819,312.9Z" transform="translate(-107.681 -167.83)"/>
    <path id="Tracé_252" data-name="Tracé 252" class="cls-3" d="M198.662,312.9s7.129,6.73,4.456,21.661-6.99,31.189-6.99,31.189L207.7,397.9s-8.076,8.432-12.061,9.456l-11.585-25.7s-5.413-8.913-3.976-22.892,6.648-36.607,6.648-36.607S186.726,308.371,198.662,312.9Z" transform="translate(-107.063 -167.83)"/>
    <path id="Tracé_253" data-name="Tracé 253" class="cls-1" d="M227.929,492.065s-9.047,12.5-8.36,15.864,3.336,1.553,3.336,1.553l3.581-4.894,3.2-9.134S229.372,491.527,227.929,492.065Z" transform="translate(-127.677 -261.317)"/>
    <path id="Tracé_254" data-name="Tracé 254" class="cls-1" d="M230.254,492.065s-9.052,12.5-8.365,15.864,3.336,1.553,3.336,1.553l3.562-4.889,3.2-9.134S231.677,491.527,230.254,492.065Z" transform="translate(-128.882 -261.317)"/>
    <path id="Tracé_255" data-name="Tracé 255" class="cls-3" d="M229.109,492.065s-9.047,12.5-8.36,15.864,3.336,1.553,3.336,1.553l3.562-4.889,3.2-9.134S230.537,491.527,229.109,492.065Z" transform="translate(-128.29 -261.317)"/>
  </g>
</svg>
