<svg xmlns="http://www.w3.org/2000/svg" viewBox="0 0 555.427 492.344">
  <defs>
    <style>
      .cls-1, .cls-2, .cls-5, .cls-7 {
        fill: #fff;
      }

      .cls-1, .cls-2, .cls-3, .cls-4, .cls-5 {
        stroke: #281c64;
        stroke-width: 2px;
      }

      .cls-1, .cls-6 {
        opacity: 0.1;
      }

      .cls-3 {
        fill: rgba(0,0,0,0);
      }

      .cls-3, .cls-4 {
        stroke-miterlimit: 10;
      }

      .cls-4 {
        fill: none;
      }

      .cls-5 {
        opacity: 0.2;
      }
    </style>
  </defs>
  <g id="Groupe_13" data-name="Groupe 13" transform="translate(1 1.044)">
    <path id="Tracé_108" data-name="Tracé 108" class="cls-1" d="M399.278,349.143c-21.626-7-44.491-12.867-67.859-12.262-34.355.892-67.386,16.9-83.678,40.563-13.771,20.051-15.609,43.617-21.62,65.913-7.406,27.469-21.464,53.538-36.468,79.032-8.059,13.693-16.561,27.673-17.962,42.719-1.922,20.889,10.735,41.773,30.691,55.771s46.509,21.458,73.188,23.2c14.2.922,29.032.21,41.671-4.9,13.37-5.388,23.147-15.249,36.57-20.578,12.441-4.934,26.943-5.568,40.9-4.844a227.55,227.55,0,0,1,53.322,9.137c19.452,5.82,37.528,14.2,56.939,20.1s41.108,9.244,61,4.5c18.674-4.455,33.487-15.435,46.844-26.559a509.323,509.323,0,0,0,59.842-58.675c12.064-14,23.3-28.792,28.691-45.156,10.292-31.289-3.5-66.716-34.349-88.264-25.559-17.86-59.944-25.745-93.616-30.535-30.709-4.413-66.237-4.85-94.461-16.088C452,371.463,427.514,358.28,399.278,349.143Z" transform="translate(-151.389 -159.453)"/>
    <ellipse id="Ellipse_16" data-name="Ellipse 16" class="cls-1" cx="13.836" cy="1.898" rx="13.836" ry="1.898" transform="translate(509.717 292.521)"/>
    <ellipse id="Ellipse_17" data-name="Ellipse 17" class="cls-1" cx="13.836" cy="1.898" rx="13.836" ry="1.898" transform="translate(456.712 297.897)"/>
    <ellipse id="Ellipse_18" data-name="Ellipse 18" class="cls-1" cx="13.836" cy="1.898" rx="13.836" ry="1.898" transform="translate(394.277 290.623)"/>
    <ellipse id="Ellipse_19" data-name="Ellipse 19" class="cls-1" cx="9.837" cy="1.353" rx="9.837" ry="1.353" transform="translate(481.924 313.745)"/>
    <ellipse id="Ellipse_20" data-name="Ellipse 20" class="cls-1" cx="9.837" cy="1.353" rx="9.837" ry="1.353" transform="translate(426.914 312.392)"/>
    <path id="Tracé_109" data-name="Tracé 109" class="cls-2" d="M883.844,470.155s19.411-63.62-3.036-89.1c-16.764-19.063-35.852-16.764-44.383-14.423a15.759,15.759,0,0,0-10.178,8.46c-2.994,6.436-2.443,16.884,18.62,29.08,35.271,20.422,37.468,48.437,37.468,48.437Z" transform="translate(-413.595 -170.791)"/>
    <path id="Tracé_110" data-name="Tracé 110" class="cls-3" d="M849.2,382.73s57.214,17.89,44.383,94.5" transform="translate(-423.334 -177.869)"/>
    <path id="Tracé_111" data-name="Tracé 111" class="cls-3" d="M901.062,393.44s-7.879,5.311-5.389,13.286" transform="translate(-441.788 -182.166)"/>
    <path id="Tracé_112" data-name="Tracé 112" class="cls-3" d="M858.79,399.313s4.79-4.9,10.675-2.2" transform="translate(-427.182 -183.315)"/>
    <path id="Tracé_113" data-name="Tracé 113" class="cls-3" d="M896.56,441.394s8.454-4.287,10.639,1.084" transform="translate(-442.339 -200.759)"/>
    <path id="Tracé_114" data-name="Tracé 114" class="cls-3" d="M927.176,457.4s-6.353-.5-6.466,2.533" transform="translate(-452.029 -207.819)"/>
    <path id="Tracé_115" data-name="Tracé 115" class="cls-2" d="M901.656,511.1s-22.751-46.239-28.972-45.228c-2.994.479-4.335,3.4-4.951,6.329a18.609,18.609,0,0,0,1.239,11.256C872.2,490.854,880.863,504.906,901.656,511.1Z" transform="translate(-430.623 -211.224)"/>
    <path id="Tracé_116" data-name="Tracé 116" class="cls-3" d="M876.53,480.54S900.389,515.134,905,516.655" transform="translate(-434.301 -217.117)"/>
    <line id="Ligne_2" data-name="Ligne 2" class="cls-4" x2="5.568" transform="translate(440.038 268.823)"/>
    <line id="Ligne_3" data-name="Ligne 3" class="cls-4" x2="8.729" y2="0.371" transform="translate(446.708 281.48)"/>
    <line id="Ligne_4" data-name="Ligne 4" class="cls-4" x1="0.946" y2="4.544" transform="translate(451.072 271.356)"/>
    <line id="Ligne_5" data-name="Ligne 5" class="cls-4" x1="0.168" y2="4.131" transform="translate(461.131 285.192)"/>
    <path id="Tracé_117" data-name="Tracé 117" class="cls-2" d="M923.52,511.1s22.752-46.239,28.972-45.228c2.994.479,4.335,3.4,4.951,6.329a18.609,18.609,0,0,1-1.239,11.256C952.977,490.854,944.314,504.906,923.52,511.1Z" transform="translate(-453.157 -211.224)"/>
    <path id="Tracé_118" data-name="Tracé 118" class="cls-3" d="M952.549,480.54s-23.859,34.594-28.469,36.115" transform="translate(-453.382 -217.117)"/>
    <line id="Ligne_6" data-name="Ligne 6" class="cls-4" x1="5.568" transform="translate(495.791 268.823)"/>
    <line id="Ligne_7" data-name="Ligne 7" class="cls-4" x1="8.729" y2="0.371" transform="translate(485.96 281.48)"/>
    <line id="Ligne_8" data-name="Ligne 8" class="cls-4" x2="0.946" y2="4.544" transform="translate(489.379 271.356)"/>
    <line id="Ligne_9" data-name="Ligne 9" class="cls-4" x2="0.174" y2="4.131" transform="translate(480.092 285.192)"/>
    <path id="Tracé_119" data-name="Tracé 119" class="cls-2" d="M857.426,555.268a3.975,3.975,0,0,1-1.293-1.952,1.742,1.742,0,0,1,.9-1.994,2.541,2.541,0,0,1,2.395.844,3.191,3.191,0,0,0,2.323,1.12,3.539,3.539,0,0,1-1.09-3.311,1.388,1.388,0,0,1,.3-.677c.461-.491,1.3-.275,1.85.108,1.754,1.239,2.245,3.622,2.257,5.766a11.188,11.188,0,0,0,0-2.395,2.436,2.436,0,0,1,.892-2.1,2.639,2.639,0,0,1,1.359-.323,2.826,2.826,0,0,1,2.209.629,2.207,2.207,0,0,1-.09,2.712,8.612,8.612,0,0,1-2.281,1.8,5.015,5.015,0,0,0-1.635,1.557,1.9,1.9,0,0,0-.12.275h-4.946a13.641,13.641,0,0,1-3.036-2.054Z" transform="translate(-426.094 -244.595)"/>
    <path id="Tracé_120" data-name="Tracé 120" class="cls-2" d="M1002.1,524.161a3.921,3.921,0,0,1-1.293-1.952,1.736,1.736,0,0,1,.9-1.988,2.551,2.551,0,0,1,2.395.838,3.2,3.2,0,0,0,2.329,1.12,3.527,3.527,0,0,1-1.1-3.311,1.323,1.323,0,0,1,.305-.671c.461-.491,1.293-.281,1.844.108,1.754,1.233,2.245,3.592,2.257,5.766a10.88,10.88,0,0,0,0-2.395,2.437,2.437,0,0,1,.892-2.1,2.724,2.724,0,0,1,1.359-.317,2.8,2.8,0,0,1,2.209.6,2.182,2.182,0,0,1-.09,2.706,8.512,8.512,0,0,1-2.281,1.832,5.017,5.017,0,0,0-1.634,1.557,1.463,1.463,0,0,0-.12.275h-4.945a13.8,13.8,0,0,1-3.036-2.065Z" transform="translate(-484.146 -232.114)"/>
    <path id="Tracé_121" data-name="Tracé 121" class="cls-2" d="M953.876,555.268a3.975,3.975,0,0,1-1.293-1.952,1.742,1.742,0,0,1,.9-1.994,2.542,2.542,0,0,1,2.395.844,3.191,3.191,0,0,0,2.323,1.12,3.545,3.545,0,0,1-1.1-3.311,1.454,1.454,0,0,1,.305-.677c.461-.491,1.3-.275,1.85.108,1.754,1.239,2.245,3.622,2.257,5.766a11.2,11.2,0,0,0,.03-2.395,2.437,2.437,0,0,1,.892-2.1,2.64,2.64,0,0,1,1.359-.323,2.825,2.825,0,0,1,2.209.629,2.207,2.207,0,0,1-.09,2.712,8.61,8.61,0,0,1-2.281,1.8,5.017,5.017,0,0,0-1.634,1.557,1.906,1.906,0,0,0-.12.276h-4.946A13.641,13.641,0,0,1,953.876,555.268Z" transform="translate(-464.797 -244.595)"/>
    <path id="Tracé_122" data-name="Tracé 122" class="cls-2" d="M815.26,496.58s-1.856,2.425.856,6.083,4.939,6.754,4.041,9.035c0,0-4.089-6.8-7.418-6.891S811.6,500.669,815.26,496.58Z" transform="translate(-408.044 -223.554)"/>
    <path id="Tracé_123" data-name="Tracé 123" class="cls-1" d="M815.26,496.58a2.926,2.926,0,0,0-.383.76c-3.245,3.814-4.975,7.376-1.856,7.466,2.91.084,6.4,5.281,7.233,6.586a.92.92,0,0,1-.1.3s-4.089-6.8-7.418-6.891S811.6,500.669,815.26,496.58Z" transform="translate(-408.044 -223.554)"/>
    <path id="Tracé_124" data-name="Tracé 124" class="cls-2" d="M812.29,501.374c0,.856.1,1.545.216,1.545s.21-.689.21-1.545-.12-.449-.234-.449S812.29,500.524,812.29,501.374Z" transform="translate(-408.523 -225.259)"/>
    <path id="Tracé_125" data-name="Tracé 125" class="cls-2" d="M810,503.051c.748.413,1.407.659,1.461.557s-.5-.521-1.251-.928-.455-.114-.515,0S809.256,502.644,810,503.051Z" transform="translate(-407.422 -225.918)"/>
    <path id="Tracé_126" data-name="Tracé 126" class="cls-2" d="M830.984,496.58s1.856,2.425-.856,6.083-4.939,6.754-4.035,9.035c0,0,4.083-6.8,7.412-6.891S834.649,500.669,830.984,496.58Z" transform="translate(-413.98 -223.554)"/>
    <path id="Tracé_127" data-name="Tracé 127" class="cls-1" d="M831.053,496.58a2.929,2.929,0,0,1,.383.76c3.245,3.814,4.975,7.376,1.856,7.466-2.91.084-6.4,5.281-7.233,6.586a2.537,2.537,0,0,0,.1.3s4.083-6.8,7.412-6.891S834.718,500.669,831.053,496.58Z" transform="translate(-414.048 -223.554)"/>
    <path id="Tracé_128" data-name="Tracé 128" class="cls-2" d="M839.875,501.374c0,.856-.1,1.545-.216,1.545s-.21-.689-.21-1.545.12-.449.234-.449S839.875,500.524,839.875,501.374Z" transform="translate(-419.422 -225.259)"/>
    <path id="Tracé_129" data-name="Tracé 129" class="cls-2" d="M841.159,503.051c-.748.413-1.407.659-1.461.557s.5-.521,1.251-.928.455-.114.515,0S841.907,502.644,841.159,503.051Z" transform="translate(-419.52 -225.918)"/>
    <path id="Tracé_130" data-name="Tracé 130" class="cls-2" d="M826.231,519.423s-5.179-.156-6.742-1.269-7.975-2.443-8.382-.659-7.783,8.873-1.94,8.921,13.6-.91,15.16-1.862S826.231,519.423,826.231,519.423Z" transform="translate(-406.37 -231.597)"/>
    <path id="Tracé_131" data-name="Tracé 131" class="cls-5" d="M809.081,527.666c5.85.048,13.6-.91,15.16-1.862,1.2-.718,1.658-3.317,1.8-4.514h.168s-.323,4.191-1.886,5.131-9.3,1.91-15.16,1.862c-1.688,0-2.269-.6-2.239-1.5C807.177,527.325,807.823,527.66,809.081,527.666Z" transform="translate(-406.367 -233.469)"/>
    <circle id="Ellipse_21" data-name="Ellipse 21" class="cls-1" cx="12.95" cy="12.95" r="12.95" transform="translate(64.279 23.281)"/>
    <circle id="Ellipse_22" data-name="Ellipse 22" class="cls-1" cx="12.95" cy="12.95" r="12.95" transform="translate(288.267 2.84)"/>
    <circle id="Ellipse_23" data-name="Ellipse 23" class="cls-1" cx="12.95" cy="12.95" r="12.95" transform="translate(493.719 54.001)"/>
    <circle id="Ellipse_24" data-name="Ellipse 24" class="cls-1" cx="21.704" cy="21.704" r="21.704" transform="translate(0 133.272)"/>
    <circle id="Ellipse_25" data-name="Ellipse 25" class="cls-1" cx="21.704" cy="21.704" r="21.704" transform="translate(20.806 240.444)"/>
    <circle id="Ellipse_26" data-name="Ellipse 26" class="cls-1" cx="21.704" cy="21.704" r="21.704" transform="translate(427.291 145.911)"/>
    <path id="Tracé_132" data-name="Tracé 132" class="cls-2" d="M575.372,386.464c-.766.072-1.545.036-2.305.156a10.5,10.5,0,0,0-3.592,1.443c-5.448,3.1-10.591,7.364-12.849,13.208a1.8,1.8,0,0,0-.168,1.168,1.975,1.975,0,0,0,.635.826l2.12,1.928a2.993,2.993,0,0,0,.94.659,3.071,3.071,0,0,0,1.736-.054c5.826-1.335,12.016-2.874,16.106-7.233,1.94-2.066,3.73-4.91,6.586-4.987a30.248,30.248,0,0,1,3.5.6c1.18.138,2.6-.365,2.88-1.515a3.186,3.186,0,0,0-.192-1.694L589,385.1c-.479-1.6-5.311-1.688-6.921-1.4C579.629,384.129,577.976,386.224,575.372,386.464Z" transform="translate(-305.85 -178.208)"/>
    <path id="Tracé_133" data-name="Tracé 133" class="cls-2" d="M610.02,432.856a49.286,49.286,0,0,1-.252,6.023,17.573,17.573,0,0,1-1.491,4.52,29.679,29.679,0,0,1-4.071,6.412A12.621,12.621,0,0,1,598.632,454c-2.245.706-5.005.2-6.406-1.694-1.144-1.539-1.2-3.592-1.114-5.514a33.77,33.77,0,0,1,3.065-13.741c.91-1.8,2.066-3.509,2.994-5.323,1.94-3.766,3.048-8.232,6.394-10.831a21.023,21.023,0,0,0,6.646,1.826c.892.1,3.443.156,3.742,1.3.2.772-1.473,2.934-1.8,3.694a25.21,25.21,0,0,0-2.137,9.137Z" transform="translate(-319.759 -191.58)"/>
    <path id="Tracé_134" data-name="Tracé 134" class="cls-2" d="M581.787,279.145a20.522,20.522,0,0,1,1.8,5.58c.12,1.2,0,2.395,0,3.592a23.46,23.46,0,0,0,.814,4.85l3.335,13.651a17.485,17.485,0,0,1,.736,6.221,32.786,32.786,0,0,0-.671,4.131,16.024,16.024,0,0,0,.5,3.131,19.29,19.29,0,0,1-.5,9.52,1.425,1.425,0,0,0-.1.736c.084.389.461.629.8.814a34.193,34.193,0,0,0,11.555,3.85,113.19,113.19,0,0,0,7.6-27.152c.85-5.652,1.263-11.376,2.353-16.986a1.389,1.389,0,0,1,.389-.862c.407-.341,1.024-.126,1.5.1A134.144,134.144,0,0,1,629.512,300.5a22,22,0,0,0,4.065-18.207,37.721,37.721,0,0,0-2.994-7.831,44.238,44.238,0,0,0-5.089-8.544c-4.442-5.568-10.957-9.125-17.662-11.537-4.077-1.473-8.274-2.562-12.465-3.676-2.347-.629-6.281-2.676-8.562-1.084-2.395,1.658-3.987,5.772-4.969,8.382a30.884,30.884,0,0,0-1.952,10.112,28.569,28.569,0,0,0,1.9,11.028Z" transform="translate(-315.26 -124.217)"/>
    <path id="Tracé_135" data-name="Tracé 135" class="cls-2" d="M637.951,318.955c-1.251,1.365-.2,3.544-.437,5.388a7.443,7.443,0,0,1-.88,2.365l-5.73,11.25a20.862,20.862,0,0,0-2.131,5.389c-.784,4.059.826,8.622-1.233,12.208-.664,1.156-1.694,2.149-1.97,3.455a27.661,27.661,0,0,0-.1,2.91,19.392,19.392,0,0,1-1.078,3.239,22.581,22.581,0,0,0-.557,3.185,18.74,18.74,0,0,1-6.73,11.639,10.7,10.7,0,0,1-7.424,2.527c-2.67-.228-5.323-2.042-5.867-4.664a6.135,6.135,0,0,0-.706-2.61c-.79-1.036-2.455-1.078-3.215-2.137l2.946-4.85a11.459,11.459,0,0,0,2-4.826c.18-2.149-.856-4.293-.485-6.418.317-1.826,1.629-3.347,2.024-5.155.491-2.245-.491-4.514-1.024-6.754-1.305-5.514.156-11.262,1.611-16.764,1.934-7.28,3.916-14.675,7.831-21.111C622.606,311.429,629.79,315.47,637.951,318.955Z" transform="translate(-323.292 -147.568)"/>
    <path id="Tracé_136" data-name="Tracé 136" class="cls-2" d="M632.87,133.288a9.765,9.765,0,0,1,.126,4.023c-.209,2.994.425,5.987.281,9.023s-1.078,5.933-1.724,8.885c-1.838,8.424-1.4,17.2-3.059,25.661-2.054,10.478-7.3,20.237-8.34,30.87-.329,3.377-.287,6.993-2.137,9.843A154.558,154.558,0,0,1,587.05,203.4c2.108-15.633,4.191-31.343,3.91-47.114a20.229,20.229,0,0,1,.4-5.676,17.5,17.5,0,0,1,2.131-4.419c2.317-3.766,4.868-7.382,7.412-10.993,1.629-2.311,3.389-4.736,5.987-5.82s5.676-.6,8.508-.084l10.214,1.868C627.733,131.557,631.96,130.815,632.87,133.288Z" transform="translate(-318.139 -75.946)"/>
    <path id="Tracé_137" data-name="Tracé 137" class="cls-2" d="M523.6,222.283a31.954,31.954,0,0,0-4.55-3.778c2.125-2.586,1.706-6.328,2.227-9.639a31.789,31.789,0,0,1,1.934-6.269c.216-.569.521-1.2,1.114-1.347a1.958,1.958,0,0,1,1.066.168c1.8.635,5.544.6,6.939,1.76,1.682,1.413.144,4.371-.491,6.137C531.39,210.5,524.492,223.181,523.6,222.283Z" transform="translate(-290.853 -105.039)"/>
    <path id="Tracé_138" data-name="Tracé 138" class="cls-2" d="M513.5,406.756a12.406,12.406,0,0,1,1.73,4.79,4.754,4.754,0,0,1-1.928,4.46c-1.449.9-3.527.6-5.251.06A27.325,27.325,0,0,1,491.5,401.1a7.407,7.407,0,0,0-4.347-5.149c-2.353-1.329-4.622-3.077-5.712-5.556s-.6-5.79,1.659-7.263a6.119,6.119,0,0,1,4.694-.6,18.156,18.156,0,0,1,4.443,1.934c2.323,1.263,5.161,2.353,7.185,4.035a46.3,46.3,0,0,1,4.939,5.221,73.424,73.424,0,0,1,4.927,6.287C509.775,400.649,513.912,406.175,513.5,406.756Z" transform="translate(-275.536 -177.7)"/>
    <path id="Tracé_139" data-name="Tracé 139" class="cls-2" d="M451.023,390.548a41.463,41.463,0,0,1-1.587,8.891,8.225,8.225,0,0,1-2.473,4.359,9.048,9.048,0,0,1-3.778,1.383,2.709,2.709,0,0,1-3.365-1.473c-2-2.646-3.946-5.442-4.79-8.652-1.2-4.652,0-9.639,2.078-13.986a14.315,14.315,0,0,1,3.2-4.664,12.268,12.268,0,0,1,5.879-2.64c2.209-.443,4.922-1.389,5.083,1.3a124.907,124.907,0,0,1-.251,15.483Z" transform="translate(-256.947 -174.059)"/>
    <path id="Tracé_140" data-name="Tracé 140" class="cls-2" d="M473.318,214.19c4.131,2.137,8.717,4.856,9.58,9.424.533,2.79-.491,5.646-.323,8.484.15,2.5,1.2,4.91,1.066,7.4a34.808,34.808,0,0,1-.6,3.5,56.67,56.67,0,0,0-.233,6.694c-.2,5.029-1.88,9.867-2.694,14.83a43.442,43.442,0,0,0-.4,10.723c.2,2.311.6,4.61.6,6.933a30.365,30.365,0,0,1-.413,4.994,49.813,49.813,0,0,1-4.79,14.889c-2.88,5.67-2.473,12.986-2.167,19.339a4.79,4.79,0,0,1-.323,2.586c-.754,1.371-2.634,1.569-4.191,1.437a22.752,22.752,0,0,1-14.968-7.58,3.838,3.838,0,0,1-1.09-2.018c-.132-1.281.9-2.335,1.641-3.395,2.527-3.592,1.886-8.46,2.185-12.873a28.139,28.139,0,0,1,2.269-9.31,17.5,17.5,0,0,0,1.838-5.245,13.245,13.245,0,0,0-.892-5.1l-1.8-5.7c-2.784-8.855-5.586-17.764-9.8-26.033a13.022,13.022,0,0,0-5.538,7.783c-1.569,5.64.665,11.939-1.473,17.363a15.88,15.88,0,0,0-.88,2.329,9.366,9.366,0,0,0-.144,2.09,170.115,170.115,0,0,0,1.066,17.465,5.388,5.388,0,0,0,.719,2.5c.353.509.868.886,1.245,1.371,1.048,1.359.85,3.263.6,4.957l-1.2,8.011a2.173,2.173,0,0,1-.389,1.132,2.143,2.143,0,0,1-1.018.551,28.38,28.38,0,0,1-11.771,1.078,7.809,7.809,0,0,1-3.2-1.581c-.1-1.2,1.389-1.994,1.443-3.185a2.748,2.748,0,0,0-.916-1.832c-2.227-2.515-4.886-5.185-4.862-8.544,0-.88.21-1.76.18-2.64-.078-2.257-1.635-4.191-2.179-6.364-.671-2.688.222-5.478.563-8.226.467-3.7-.084-7.448-.6-11.142l-2.006-13.555a36.305,36.305,0,0,0-1.245-6.215,48.647,48.647,0,0,0-2.652-5.832c-1.916-3.892-3.491-7.939-5.059-11.974a10.914,10.914,0,0,1-.928-3.467,8.446,8.446,0,0,1,2.287-5.574,17.429,17.429,0,0,1,9.58-5.808,4.192,4.192,0,0,1,1.922-.078,5.161,5.161,0,0,1,1.491.784,35.816,35.816,0,0,0,31.655,3.754,2.61,2.61,0,0,0,2.395-.066,30.654,30.654,0,0,0,5.179-3.592A30.838,30.838,0,0,1,473.318,214.19Z" transform="translate(-246.115 -110.237)"/>
    <path id="Tracé_141" data-name="Tracé 141" class="cls-2" d="M309.967,465.438a8.192,8.192,0,0,0,1.413,2.521c2.167,2.826,5.191,5.083,6.586,8.382.293.706.509,1.449.778,2.167a14.255,14.255,0,0,0,3.892,5.64,23.952,23.952,0,0,0,4.293,2.844c2.646,1.443,5.508,2.748,8.514,2.67a9.25,9.25,0,0,0,1.8-.216,9.72,9.72,0,0,0,2.676-.982c1.934-1.066,3.592-3.149,3.209-5.323a4.872,4.872,0,0,0-.389-1.2,12.579,12.579,0,0,0-1.1-1.73,13,13,0,0,0-3.532-3.736c-1.664-1.018-3.76-1.269-5.257-2.527a8.263,8.263,0,0,1-1.515-1.832,23.1,23.1,0,0,1-2.994-6.784c-.455-1.8-.76-3.766-2.072-5.083s-3.113-1.617-4.862-1.916a8.445,8.445,0,0,0-1.8-.174,5.075,5.075,0,0,1-2.545-.126c-.8-.4-1.072-.97-2.042-.892a4.191,4.191,0,0,0-2.1.916C310.649,459.744,309.14,462.737,309.967,465.438Z" transform="translate(-206.86 -207.727)"/>
    <path id="Tracé_142" data-name="Tracé 142" class="cls-2" d="M334.218,470.165c.389,2.03.988,4.191,2.557,5.514,1,.862,2.395,1.4,2.892,2.616s-.144,2.742-.97,3.856a14.2,14.2,0,0,1-3.856,3.538,5.765,5.765,0,0,1-4.239,1.036,7.079,7.079,0,0,1-3.036-1.976c-2.048-1.9-4.143-3.868-5.293-6.412-1.2-2.682-1.257-5.79-2.563-8.43-.76-1.539-1.934-2.886-2.395-4.538a2.82,2.82,0,0,1,0-1.844,2.6,2.6,0,0,1,2.347-1.4,8.168,8.168,0,0,1,2.808.6,61.834,61.834,0,0,0,8.28,2.317c1.12.21,1.8.2,2.395,1.287a12.909,12.909,0,0,1,1.072,3.832Z" transform="translate(-209.839 -209.73)"/>
    <path id="Tracé_143" data-name="Tracé 143" class="cls-2" d="M356.544,501.908a6.585,6.585,0,0,0-.928,2.227,4.975,4.975,0,0,0-.066,1.88,9.72,9.72,0,0,0,2.676-.982c1.934-1.066,3.592-3.149,3.209-5.323a4.868,4.868,0,0,0-.389-1.2,1.67,1.67,0,0,0-1.593.5,13.224,13.224,0,0,0-2.91,2.9Z" transform="translate(-225.22 -224.313)"/>
    <path id="Tracé_144" data-name="Tracé 144" class="cls-2" d="M321.226,425.686a2.946,2.946,0,0,0-.221,1.8c.275,1.2,1.5,1.886,2.61,2.431l10.532,5.149a22.049,22.049,0,0,1,2.132,1.132,31.389,31.389,0,0,1,4.742,4.083,12.441,12.441,0,0,0,5.269,3.263,8.9,8.9,0,0,0,5.987-.784,12.373,12.373,0,0,0,2.742-1.862,16.861,16.861,0,0,0,1.976-2.054,4.431,4.431,0,0,0,1.072-1.934,4.245,4.245,0,0,0-.982-3.077,14.226,14.226,0,0,0-1.2-1.485c-3.994-4.413-10.538-6.7-16.166-7.6a46.034,46.034,0,0,1-6.52-1.88,15.267,15.267,0,0,0-6.676-.88A6.609,6.609,0,0,0,321.226,425.686Z" transform="translate(-211.36 -193.582)"/>
    <path id="Tracé_145" data-name="Tracé 145" class="cls-1" d="M321.226,425.686a2.946,2.946,0,0,0-.221,1.8c.275,1.2,1.5,1.886,2.61,2.431l10.532,5.149a22.049,22.049,0,0,1,2.132,1.132,31.389,31.389,0,0,1,4.742,4.083,12.441,12.441,0,0,0,5.269,3.263,8.9,8.9,0,0,0,5.987-.784,12.373,12.373,0,0,0,2.742-1.862,16.861,16.861,0,0,0,1.976-2.054,4.431,4.431,0,0,0,1.072-1.934,4.245,4.245,0,0,0-.982-3.077,14.226,14.226,0,0,0-1.2-1.485c-3.994-4.413-10.538-6.7-16.166-7.6a46.034,46.034,0,0,1-6.52-1.88,15.267,15.267,0,0,0-6.676-.88A6.609,6.609,0,0,0,321.226,425.686Z" transform="translate(-211.36 -193.582)"/>
    <path id="Tracé_146" data-name="Tracé 146" class="cls-2" d="M359.953,432.524a11.973,11.973,0,0,1,1.976,3.047,3.413,3.413,0,0,1,.449,2.437,3.557,3.557,0,0,1-1.1,1.437l-1.048.97a4.19,4.19,0,0,1-1.09.814,4.359,4.359,0,0,1-1.8.269,6.693,6.693,0,0,1-4.065-.844c-1.563-1.126-1.844-3.455-1.132-5.245a11.318,11.318,0,0,1,3.706-4.353C357.079,430.069,359.1,431.62,359.953,432.524Z" transform="translate(-223.731 -197.134)"/>
    <path id="Tracé_147" data-name="Tracé 147" class="cls-2" d="M376.044,442.158a5.323,5.323,0,0,0,.269,2.964c.263.9.521,1.8.778,2.712v.036a16.861,16.861,0,0,0,1.976-2.054,4.43,4.43,0,0,0,1.072-1.934,4.245,4.245,0,0,0-.982-3.077,14.207,14.207,0,0,0-1.2-1.485c-.281.365-.527.724-.73.958A5.288,5.288,0,0,0,376.044,442.158Z" transform="translate(-233.428 -200.577)"/>
    <path id="Tracé_148" data-name="Tracé 148" class="cls-2" d="M329.41,343.523c-1.239,5.209-.712,10.657-.054,15.974.5,4.047,1.066,8.238-.132,12.136-.443,1.455-1.144,2.934-.874,4.437.509,2.832,3.922,3.922,6.748,4.454a6.652,6.652,0,0,0,2.5.15,5.927,5.927,0,0,0,2.275-1.2,24.871,24.871,0,0,0,8.759-11.645,43.085,43.085,0,0,0,1.742-9.735c.551-5.532,1.108-11.13.3-16.627-.239-1.617-.6-3.215-.748-4.844a35,35,0,0,1,.467-8.472,136.667,136.667,0,0,1,4.67-20.44,27.541,27.541,0,0,1-16.573-2.994c.982.527-.144,8.927-.263,10.106a68.6,68.6,0,0,1-1.9,10.418C334.654,331.633,330.924,337.177,329.41,343.523Z" transform="translate(-214.305 -146.565)"/>
    <path id="Tracé_149" data-name="Tracé 149" class="cls-1" d="M329.41,343.523c-1.239,5.209-.712,10.657-.054,15.974.5,4.047,1.066,8.238-.132,12.136-.443,1.455-1.144,2.934-.874,4.437.509,2.832,3.922,3.922,6.748,4.454a6.652,6.652,0,0,0,2.5.15,5.927,5.927,0,0,0,2.275-1.2,24.871,24.871,0,0,0,8.759-11.645,43.085,43.085,0,0,0,1.742-9.735c.551-5.532,1.108-11.13.3-16.627-.239-1.617-.6-3.215-.748-4.844a35,35,0,0,1,.467-8.472,136.667,136.667,0,0,1,4.67-20.44,27.541,27.541,0,0,1-16.573-2.994c.982.527-.144,8.927-.263,10.106a68.6,68.6,0,0,1-1.9,10.418C334.654,331.633,330.924,337.177,329.41,343.523Z" transform="translate(-214.305 -146.565)"/>
    <path id="Tracé_150" data-name="Tracé 150" class="cls-2" d="M356.54,307.876c2.395,6.939,1.868,14.519.832,21.788s-2.563,14.537-2.113,21.859c.174,2.874.641,5.826-.2,8.574a18.74,18.74,0,0,1-1.838,3.826L334.118,396.96a5.939,5.939,0,0,1-4.79,2.994,13.871,13.871,0,0,1-5.951-1.275,10.705,10.705,0,0,1-3.467-1.922,4.1,4.1,0,0,1-1.461-3.508c.856-5.736,2.143-11.609,3.1-17.363a30.056,30.056,0,0,1,4.155-11c1.479-2.395,3.3-4.544,4.574-7.035,3.664-7.137,2.395-15.842-.431-23.35s-7.035-14.477-9.28-22.153a25.4,25.4,0,0,1-1.132-6.586,17.561,17.561,0,0,1,5.005-12.489,4.388,4.388,0,0,1,1.73-1.2,4.849,4.849,0,0,1,2.359.042C339.165,294.183,353.026,297.626,356.54,307.876Z" transform="translate(-210.35 -141.441)"/>
    <path id="Tracé_151" data-name="Tracé 151" class="cls-2" d="M641.52,140.061a12.025,12.025,0,0,1-1.946,7.544c-5.1,8.5-16.842,12.262-25.925,8.3-3.742-1.635-6.909-4.329-10.011-6.987a8.912,8.912,0,0,1-2.652-3.107c-.928-2.245.192-4.922,2.018-6.526a17.145,17.145,0,0,1,6.544-3.107C617.314,133.762,639.67,126.134,641.52,140.061Z" transform="translate(-323.598 -77.223)"/>
    <path id="Tracé_152" data-name="Tracé 152" class="cls-2" d="M650.012,131.582c7.071,5.688,17.363,11.106,25.374,15.321,2.724,1.437,5.748,3.053,6.73,5.987a11.656,11.656,0,0,1,.18,4.927,33.237,33.237,0,0,1-1.91,9.358c-1.443,3.455-3.993,6.3-6.041,9.442-3.592,5.5-5.7,11.974-10.136,16.83,2.994,9.945,6.269,19.878,7.334,30.2a1.39,1.39,0,0,1-.09.844,1.448,1.448,0,0,1-.467.425l-7.448,4.886a8.384,8.384,0,0,0-2.149,1.8c-1.317,1.712-1.144,4.119-1.958,6.113a7.945,7.945,0,0,1-4.61,4.191,14.2,14.2,0,0,1-6.34.671,14.74,14.74,0,0,1-7.568-2.664,20.933,20.933,0,0,1-4.556-5.442,21.19,21.19,0,0,1-2.395-4.365,19.654,19.654,0,0,1-.814-6.951,73.491,73.491,0,0,1,1.275-13.31c.347-1.742.778-3.461,1.054-5.215.551-3.532.443-7.137.85-10.687a71.882,71.882,0,0,1,2.664-11.777,60.755,60.755,0,0,0,1.557-7.245,79.429,79.429,0,0,1,3.491-12.573l2.395-7.071c.509-1.527,1.024-3.047,1.629-4.538,1.126-2.784,2.574-5.5,2.958-8.466.425-3.239-3.071-7.083-1.892-10.124C649.222,131.809,649.742,131.366,650.012,131.582Z" transform="translate(-336.634 -77.066)"/>
    <path id="Tracé_153" data-name="Tracé 153" class="cls-2" d="M683.278,164.42c1.659.748,2.575,2.533,3.167,4.257a24.13,24.13,0,0,1,.934,12.094,21.646,21.646,0,0,0-.479,3.089,20.6,20.6,0,0,0,.353,3.592c.6,4.58,0,9.232.2,13.854.2,5.2,1.335,10.687-.844,15.411-1.449,3.137-4.191,5.472-6.9,7.592a138.019,138.019,0,0,1-33.032,19.063c2.042-2.455,2.078-6.149.718-9.041a16.812,16.812,0,0,0-6.586-6.754,42.435,42.435,0,0,0,9.909-3.538c6.275-3.185,11.651-7.849,16.962-12.465a5.161,5.161,0,0,0,1.76-2.227c.539-1.8-.946-3.5-1.976-5.077-3.119-4.79-2.395-11.046-1.09-16.591,1.455-6.077,3.592-12.13,7.49-17.016A16.83,16.83,0,0,1,683.278,164.42Z" transform="translate(-339.712 -90.266)"/>
    <path id="Tracé_154" data-name="Tracé 154" class="cls-2" d="M636.018,286.6a8.185,8.185,0,0,1-2.06,2.263c-1.8,1.2-4.263.742-6.269-.108a18.291,18.291,0,0,1-5.089-3.239,7.975,7.975,0,0,0-2.257-1.676c-1.569-.6-3.76-.15-4.64-1.593a.844.844,0,0,1-.144-.515c.054-.521.736-.665,1.263-.694a15.68,15.68,0,0,0,6.927-2.137,6.649,6.649,0,0,1-1.7-1.8,1.4,1.4,0,0,1-.287-.85,1.52,1.52,0,0,1,.521-.85,13.327,13.327,0,0,1,14.657-2.443,2.922,2.922,0,0,1,1.2.9,3.324,3.324,0,0,1,.437,1.2c.389,1.676,1.8,4.191,1.287,5.885C639.3,282.888,637.173,284.953,636.018,286.6Z" transform="translate(-329.579 -133.342)"/>
    <path id="Tracé_155" data-name="Tracé 155" class="cls-2" d="M576.969,217.623c7.448-8.6,10.777-19.926,13.866-30.876l2.209-7.783,5.329-18.746c.784-2.766,1.569-5.532,2.09-8.352a77.294,77.294,0,0,0,.922-14.788A16.005,16.005,0,0,0,600,131.137c-.521-1.293-.772-2.67-1.2-4.005a19.988,19.988,0,0,0-2.4-5.263,5.512,5.512,0,0,0-1.084-1.293,6.3,6.3,0,0,0-2.449-.994,21.554,21.554,0,0,0-5.861-.892,7.266,7.266,0,0,0-5.317,2.269,27.552,27.552,0,0,0-2.2,3.952,15.4,15.4,0,0,0-.976,1.658,8.387,8.387,0,0,0-.539,2.718q-.467,5.658-.8,11.328c-.1,1.718-.192,3.449-.126,5.173.054,1.341.2,2.676.341,4.011l1.419,13.076c.329,3.071.1,5.945.371,9.023.671,7.43-.928,14.86-2.568,22.153a39.844,39.844,0,0,1-3.269,10.118c-1.479,2.778-3.694,5.6-3.107,8.693a30.185,30.185,0,0,1,.832,3.173,6.373,6.373,0,0,0,.2,2.006,2.4,2.4,0,0,0,2.557,1.2A5.934,5.934,0,0,0,576.969,217.623Z" transform="translate(-311.357 -71.916)"/>
    <path id="Tracé_156" data-name="Tracé 156" class="cls-2" d="M574.792,220.784c.227,1.718.054,3.461.138,5.191a35.014,35.014,0,0,0,1.2,6.586c.6,2.395,1.365,5.077,3.479,6.406a10.934,10.934,0,0,1,1.515.952,1.473,1.473,0,0,1,.491,1.6l-1.646-.275a1.67,1.67,0,1,1-2.3,2.395,3.9,3.9,0,0,1-.15,1.6,1.305,1.305,0,0,1-1.2.9,1.928,1.928,0,0,1-.856-.359l-4.3-2.664a7.933,7.933,0,0,1-3.1-2.994l-1.88-2.832a6.768,6.768,0,0,1-.976-1.8c-.7-2.395,1.257-5.053.24-7.31a9.827,9.827,0,0,0-1.072-1.569c-2.173-2.994-2.036-7.065-1.8-10.777.078-1.251.305-2.736,1.437-3.281a2.952,2.952,0,0,1,2.808.5,11.928,11.928,0,0,0,2.515,1.587c.6.2,1.257.228,1.856.443.838.293,1.617,1.437,2.179,2.113a7.011,7.011,0,0,1,1.413,3.58Z" transform="translate(-308.27 -109.509)"/>
    <path id="Tracé_157" data-name="Tracé 157" class="cls-2" d="M483.32,114.28a10.645,10.645,0,0,1-2.107,3.149,4.077,4.077,0,0,1-3.473,1.2,6.131,6.131,0,0,1-3.185-2.395,41.764,41.764,0,0,1-6.173-8.634c-2.359-4.868-2.736-10.424-3.077-15.818a7.507,7.507,0,0,1,.509-4.077c.844-1.551,2.634-2.281,4.287-2.9l9.131-3.413a3.538,3.538,0,0,1,1.8-.329c1.431.239,1.958,1.964,2.347,3.359a20.956,20.956,0,0,0,3.413,6.945c2.048,2.73,6.64,6.406,4.017,9.813C487.637,105.263,485.625,109.669,483.32,114.28Z" transform="translate(-269.264 -56.812)"/>
    <path id="Tracé_158" data-name="Tracé 158" class="cls-2" d="M479.044,100.552c4,3.76,5.353,9.616,5.161,15.094s-1.712,10.819-2.581,16.231-1.042,11.19,1.311,16.166a40.674,40.674,0,0,1,2.473,5.089,15.969,15.969,0,0,1,.473,5.466,15.609,15.609,0,0,1-1.09,5.652c-1.275,2.826-3.9,4.79-6.406,6.586-5.119,3.7-10.34,7.46-16.351,9.394a50.1,50.1,0,0,1-12.645,1.976,40.223,40.223,0,0,1-8.658-.245A23.512,23.512,0,0,1,427.59,175a7.365,7.365,0,0,1-1.491-2.054,8.534,8.534,0,0,1-.521-3.113q-.216-5.9.072-11.795a51.847,51.847,0,0,1,1.539-11.106c1.144-4.191,3.125-8.119,4.628-12.2,5.233-14.2,4.706-30.349,11.974-43.605,1.569-2.862,4.191-5.873,7.424-5.418a2.491,2.491,0,0,1,1.641.754,3.455,3.455,0,0,1,.6,1.844c.772,6.442,1.868,13.052,4.9,18.866,1.2,2.281,2.994,5.754,5.754,6.364s4.389-2.024,5.867-3.892a47.785,47.785,0,0,1,9.065-9.095Z" transform="translate(-253.307 -58.663)"/>
    <path id="Tracé_159" data-name="Tracé 159" class="cls-2" d="M530.553,91.807a11.931,11.931,0,0,1,2.269,1.593,9.176,9.176,0,0,1,2.443,6.772,52.643,52.643,0,0,1-.958,7.34c-.964,6.586-.144,13.328.239,20a9.679,9.679,0,0,1-.192,3.221c-.293,1.006-.9,1.892-1.287,2.868-1.144,2.886-.281,6.179-.952,9.208-.718,3.227-3.179,6.161-2.718,9.436.186,1.281.8,2.461,1.066,3.73a3.279,3.279,0,0,1-1.06,3.485c-1.1.683-2.688.186-3.994.563a12.308,12.308,0,0,0-1.545.695,7.588,7.588,0,0,1-6.412-.4,19.433,19.433,0,0,1-5.179-4.107c-2.281-2.335-4.49-4.892-5.49-8-1.461-4.5-.162-9.406,1.425-13.872s3.479-8.981,3.2-13.729a60.5,60.5,0,0,0-1.5-7.825,50.054,50.054,0,0,1-.665-10.957,19.487,19.487,0,0,1,1.413-7.873,10.843,10.843,0,0,1,8.574-5.867C523.422,87.634,527.014,89.771,530.553,91.807Z" transform="translate(-285.675 -59.611)"/>
    <path id="Tracé_160" data-name="Tracé 160" class="cls-1" d="M527.953,171.646a18.255,18.255,0,0,0,1.018,5.622c1.072-2.443,1.2-5.185,1.341-7.843.6-9.154,2.628-17.788,4.79-26.655-1.575,1.2-2.461,4.191-3.215,5.987a52.794,52.794,0,0,0-3.934,22.889Z" transform="translate(-294.397 -81.578)"/>
    <path id="Tracé_161" data-name="Tracé 161" class="cls-2" d="M427.646,84.215c-2.886.76-5.388,2.473-8.185,3.592a61.127,61.127,0,0,1-9.077,2.443c-7.053,1.712-14.136,4.892-18.393,10.777-3.137,4.329-4.437,9.675-6.586,14.579-1.8,4.113-4.191,7.969-5.514,12.25-1.73,5.586-1.533,11.573-1.108,17.4.347,4.79.874,9.633,3.048,13.878,1.138,2.227,2.706,4.221,3.844,6.448,1.365,2.676,2.084,5.628,3.221,8.382s2.808,5.508,5.448,6.945l4.371-2.557c6.52-3.814,13.04-7.634,19.357-11.777,5.508-3.592,11.064-7.718,14-13.621,2.6-5.215,2.856-11.31,2.185-17.1s-2.2-11.454-2.994-17.225a69.368,69.368,0,0,1,.449-21.859c.6-3.257,2.191-6.622,2.521-9.867C434.6,83.443,430.142,83.556,427.646,84.215Z" transform="translate(-234.45 -57.935)"/>
    <path id="Tracé_162" data-name="Tracé 162" class="cls-2" d="M407.438,238.424c3.347,3.167,8.161,4.089,12.346,5.987a26.506,26.506,0,0,1,8.244,5.987c1.287,1.413,2.533,3.335,1.886,5.131-.545,1.545-2.215,2.335-3.748,2.91-1.9.718-4.029,1.353-5.927.629a21.29,21.29,0,0,1-3.036-1.88c-2.509-1.491-5.67-1.5-8.244-2.874-3.628-1.94-5.436-6.209-8.849-8.514-1.868-1.257-4.449-2.287-4.64-4.532a5.478,5.478,0,0,1,.5-2.353c.689-1.832,1.862-8.125,4.484-7.957C403.313,231.143,405.313,236.909,407.438,238.424Z" transform="translate(-241.263 -116.965)"/>
    <path id="Tracé_163" data-name="Tracé 163" class="cls-2" d="M365.135,185.227c1.1,3.94,3.64,7.3,6.281,10.424,1.9,2.245,3.982,4.688,4.047,7.628a8.039,8.039,0,0,1-4.191,6.754,17.758,17.758,0,0,1-7.987,2.054,20.146,20.146,0,0,1-6.622-.461c-5.472-1.485-9.268-6.257-13.573-9.945-2.557-2.185-5.43-4.089-7.388-6.825s-2.784-6.664-.856-9.424a13.638,13.638,0,0,1,2.395-2.395,40.03,40.03,0,0,0,8.256-9.909c.886-1.5,1.736-3.131,3.227-4.035,2.137-1.3,4.88-.706,7.3-.072,2.628.689,10.035,2.036,10.549,5.389.21,1.377-1.5,3.52-1.754,5a13.243,13.243,0,0,0,.317,5.82Z" transform="translate(-216.496 -91.83)"/>
    <path id="Tracé_164" data-name="Tracé 164" class="cls-2" d="M371.619,198.843a25.283,25.283,0,0,1,1.928,4.46c1.826,6.346-1.437,12.885-2.994,19.3-1.988,8.22-1.144,16.818-1.239,25.278-.042,3.868-.455,8.125-3.239,10.807a10.033,10.033,0,0,0-2.066,2.119,8.773,8.773,0,0,0-.665,1.982,10.214,10.214,0,0,1-14.8,6.1c-2.269-1.263-4.239-3.455-6.837-3.521a19.823,19.823,0,0,0-2.437.269c-2.586.257-5.119-.7-7.544-1.641a4.922,4.922,0,0,1-1.593-.85c-.437-.4-.718-.94-1.12-1.371-1.479-1.593-4.005-1.317-6.137-1.76a8.592,8.592,0,0,1-6.508-6.508,16.793,16.793,0,0,1,.293-6.269l1.6-9.256a85.22,85.22,0,0,0,1.4-10.28,43.108,43.108,0,0,0-.994-11.621,93.113,93.113,0,0,1-2.143-9.334,22.805,22.805,0,0,1,4.191-16.052c.832-1.144,1.922-2.287,3.335-2.395a5.605,5.605,0,0,1,3.209,1.1q12.95,7.664,26.08,15.01a30.856,30.856,0,0,0,7.514,3.365c.8.2,1.952.12,2.066-.695a1.514,1.514,0,0,0-.234-.88c-1.5-2.88-3.664-5.353-5.388-8.095s-3.053-5.987-2.545-9.172c.695-4.407,4.79-7.322,8.137-3.868C366.644,188.982,369.158,194.023,371.619,198.843Z" transform="translate(-209.443 -97.938)"/>
    <path id="Tracé_165" data-name="Tracé 165" class="cls-2" d="M353.268,296.557c7.023.449,14.2.928,20.7,3.622,2.09.862,4.3,1.976,6.5,1.443a8.693,8.693,0,0,0,2.994-1.6,68.483,68.483,0,0,0,7.652-6.526c-.24-1.311-2.018-1.491-3.347-1.479a20,20,0,0,1-9.316-2.239,15.7,15.7,0,0,0-2.994-1.4c-2.844-.784-5.742.712-8.6,1.443-4.227,1.078-8.681.449-13-.186l-11.651-1.718a4.163,4.163,0,0,0-3.167.389,3.868,3.868,0,0,0-1.132,2.03c-1.425,4.79-.742,5.191,4,5.49Z" transform="translate(-217.903 -139.773)"/>
    <ellipse id="Ellipse_27" data-name="Ellipse 27" class="cls-1" cx="19.159" cy="19.159" rx="19.159" ry="19.159" transform="translate(275.299 35.339)"/>
    <ellipse id="Ellipse_28" data-name="Ellipse 28" class="cls-2" cx="19.159" cy="19.159" rx="19.159" ry="19.159" transform="translate(275.161 34.507)"/>
    <path id="Tracé_166" data-name="Tracé 166" class="cls-2" d="M632.575,85.943A10.212,10.212,0,0,1,636.55,89.5a17.8,17.8,0,0,1,1.024,3.353c1.048,3.592,3.838,6.712,4.005,10.454.186,4.1-2.892,7.664-6.376,9.813a4.73,4.73,0,0,1-2.742.922,8.817,8.817,0,0,1-2.814-1.108c-3.934-1.748-8.334.467-12.5,1.485a22.44,22.44,0,0,1-13.052-.766,12.35,12.35,0,0,1-5.831-4.041,6.4,6.4,0,0,1-.713-6.76c.6-1.066,1.593-2.03,1.527-3.245a16.779,16.779,0,0,0-.6-2.107,4.847,4.847,0,0,1,1.018-3.233,46.8,46.8,0,0,1,10.358-11.717A7.41,7.41,0,0,1,614,80.536c3.149-.138,5.855,2.209,9.095,2.221C626.773,82.769,629.414,83.991,632.575,85.943Z" transform="translate(-322.083 -56.603)"/>
    <circle id="Ellipse_29" data-name="Ellipse 29" class="cls-1" cx="19.758" cy="19.758" r="19.758" transform="translate(204.033 10.103)"/>
    <circle id="Ellipse_30" data-name="Ellipse 30" class="cls-2" cx="19.758" cy="19.758" r="19.758" transform="translate(204.38 9.618)"/>
    <path id="Tracé_167" data-name="Tracé 167" class="cls-2" d="M506.734,81.1c2.79,1.563,6.233,1.4,9.346.689a12.574,12.574,0,0,0,4.91-2.072,5.921,5.921,0,0,0,2.473-4.55c0-2.006-1.317-3.814-1.479-5.82-.2-2.527,1.449-4.862,1.623-7.4s-1.078-4.826-2.3-7.005c-2.1-3.742-4.287-7.532-7.484-10.394S506.2,39.862,502,40.826c-2.06.473-3.97,1.581-6.071,1.8-1.868.174-3.712-.389-5.574-.629s-3.952-.09-5.287,1.2c-.73.718-1.2,1.73-2.054,2.257a12.321,12.321,0,0,1-1.8.665c-2.161.868-3.149,3.3-3.916,5.5L472.17,66.332c1.718,1.2,3.79,1.742,5.67,2.664s3.706,2.395,4.089,4.454c.293,1.563-.263,3.359.647,4.664.832,1.2,2.527,1.4,3.964,1.2a14.96,14.96,0,0,1,4.317-.479c3.592.545,4.927,2.748,8.25,0S503.645,79.366,506.734,81.1Z" transform="translate(-272.041 -40.566)"/>
    <circle id="Ellipse_31" data-name="Ellipse 31" class="cls-1" cx="17.962" cy="17.962" r="17.962" transform="translate(122.211 55.971)"/>
    <circle id="Ellipse_32" data-name="Ellipse 32" class="cls-2" cx="17.962" cy="17.962" r="17.962" transform="translate(122.906 54.995)"/>
    <path id="Tracé_168" data-name="Tracé 168" class="cls-2" d="M360.631,127.227a47.372,47.372,0,0,0-14.208-7.472c-3.281-1.066-6.849-1.8-10.178-.814-4.514,1.287-10.556,3.209-13.352,6.987a20.014,20.014,0,0,0-3.437,5.987c-1.329,4.466.563,9.226.437,13.884-.15,5.43-3.03,10.388-6.173,14.818s-3.778,10.777-5.634,15.89c-.635,1.754-.838,4.191.8,5.071,1.437.8,3.173-.2,4.5-1.156l7.993-5.778a6.09,6.09,0,0,1,2.107-1.126c1.647-.383,3.257.647,4.634,1.623L344.884,187a5.143,5.143,0,0,0,.078-4.359c1.575.485,2.718,1.8,4.1,2.73s3.485,1.239,4.49-.066.245-3.059-.874-4.113-2.592-1.682-3.688-2.766c-2.173-2.161-2.395-5.574-3.766-8.3-.982-1.916-2.569-3.52-3.263-5.562-1.132-3.335.347-6.927,1.8-10.136,1.73-3.808,3.688-7.873,7.37-9.861,1.239-.671,2.61-1.066,3.88-1.676,3.161-1.515,7.107-5.089,8.652-8.292C365.013,131.747,362.93,129,360.631,127.227Z" transform="translate(-206.01 -71.83)"/>
    <path id="Tracé_169" data-name="Tracé 169" class="cls-1" d="M332.083,231.837c1.718,1.1,3.658,1.8,5.347,2.94s3.167,2.88,3.215,4.915c.048,1.946-1.2,3.652-2.395,5.2L323.664,264.03,331.1,266c-1.2,1.652-1.5,3.76-2.125,5.7s-1.8,3.958-3.784,4.466c-1.8.461-3.676-.485-5.532-.377-1.371.084-2.664.73-4.035.784a8.57,8.57,0,0,1-4.88-1.844c-3.281-2.2-6.538-5.347-6.514-9.3a14.065,14.065,0,0,1,.8-3.916c2.149-7.011,4.377-14.19,8.831-20.021a62.862,62.862,0,0,1,8.25-8.352,7.7,7.7,0,0,1,2.311-1.6c1.916-.718,4.005.168,5.987.742s4.478.659,5.622-1.036" transform="translate(-204.65 -117.083)"/>
    <path id="Tracé_170" data-name="Tracé 170" class="cls-2" d="M331.037,229.839c1.718,1.09,3.658,1.8,5.347,2.94s3.167,2.88,3.221,4.91-1.2,3.658-2.395,5.2l-14.591,19.123,7.436,1.97c-1.2,1.652-1.5,3.754-2.125,5.7s-1.8,3.958-3.784,4.466c-1.8.461-3.676-.485-5.532-.377-1.371.078-2.664.73-4.035.778a8.571,8.571,0,0,1-4.88-1.844c-3.281-2.191-6.538-5.347-6.508-9.292a13.774,13.774,0,0,1,.79-3.916c2.149-7.017,4.377-14.2,8.831-20.021a64.567,64.567,0,0,1,8.25-8.382,7.915,7.915,0,0,1,2.311-1.6c1.916-.718,4.005.168,5.987.748s4.478.659,5.622-1.036" transform="translate(-204.233 -116.265)"/>
    <g id="Groupe_4" data-name="Groupe 4" class="cls-6" transform="translate(274.794 37.859)">
      <path id="Tracé_171" data-name="Tracé 171" class="cls-7" d="M598.885,120.5a12.338,12.338,0,0,0,5.832,4.041,22.338,22.338,0,0,0,13.052.766c4.191-1.018,8.568-3.233,12.5-1.485a8.8,8.8,0,0,0,2.808,1.114,4.79,4.79,0,0,0,2.748-.928,14.166,14.166,0,0,0,5.718-6.245,1.539,1.539,0,0,0,.036.4c.186,4.1-2.892,7.664-6.376,9.813a4.73,4.73,0,0,1-2.742.922,8.817,8.817,0,0,1-2.814-1.108c-3.934-1.748-8.334.467-12.5,1.485a22.44,22.44,0,0,1-13.052-.766,12.35,12.35,0,0,1-5.832-4.041,6.4,6.4,0,0,1-.713-6.76l.09-.15A7.324,7.324,0,0,0,598.885,120.5Z" transform="translate(-596.877 -109.322)"/>
      <path id="Tracé_172" data-name="Tracé 172" class="cls-7" d="M600.721,104.973a4.2,4.2,0,0,1-1.042,2.479,3.788,3.788,0,0,1-.174-.6,4.617,4.617,0,0,1,.9-3.053A3.986,3.986,0,0,1,600.721,104.973Z" transform="translate(-597.917 -103.8)"/>
    </g>
    <path id="Tracé_173" data-name="Tracé 173" class="cls-1" d="M478.7,54.016l-5.137,14.717c1.718,1.2,3.79,1.748,5.67,2.664s3.706,2.395,4.089,4.455c.293,1.563-.263,3.359.647,4.67.832,1.2,2.527,1.4,3.964,1.2s2.88-.7,4.317-.479c3.592.545,4.927,2.748,8.25.03s4.526.509,7.616,2.245c2.79,1.569,6.233,1.407,9.346.689a12.574,12.574,0,0,0,4.91-2.066,7.649,7.649,0,0,0,.6-.545,6.67,6.67,0,0,1-2.012,2.491,12.574,12.574,0,0,1-4.91,2.072c-3.113.712-6.586.874-9.346-.689-3.089-1.736-4.359-4.9-7.616-2.245s-4.67.515-8.25,0a14.985,14.985,0,0,0-4.317.479c-1.443.2-3.131,0-3.964-1.2-.91-1.305-.353-3.1-.647-4.664-.383-2.06-2.209-3.538-4.089-4.455s-3.952-1.473-5.67-2.664l5.161-14.759a11.963,11.963,0,0,1,2.455-4.532,20.1,20.1,0,0,0-1.066,2.586Z" transform="translate(-272.033 -44.926)"/>
    <g id="Groupe_5" data-name="Groupe 5" class="cls-6" transform="translate(101.614 53.211)">
      <path id="Tracé_174" data-name="Tracé 174" class="cls-7" d="M366.751,187.684c1.323.6,2.994.689,3.832-.431.94-1.2.246-3.054-.874-4.113s-2.592-1.682-3.688-2.766c-2.173-2.155-2.395-5.568-3.766-8.3-.982-1.922-2.569-3.526-3.263-5.568-1.132-3.329.347-6.927,1.8-10.13,1.73-3.808,3.688-7.873,7.37-9.861,1.239-.671,2.61-1.066,3.88-1.676,3.161-1.515,7.107-5.1,8.652-8.3,1.3-2.7-.533-5.323-2.712-7.1,1.06.689,2.1,1.413,3.1,2.185,2.305,1.8,4.383,4.52,2.994,7.352-1.545,3.2-5.49,6.778-8.652,8.292-1.269.6-2.64,1.006-3.88,1.676-3.682,1.988-5.64,6.053-7.37,9.861-1.455,3.209-2.934,6.8-1.8,10.136.695,2.042,2.281,3.646,3.263,5.562,1.389,2.73,1.593,6.143,3.766,8.3,1.1,1.084,2.568,1.706,3.688,2.766s1.8,2.892.874,4.113-3.113.97-4.49.066C368.547,189.127,367.7,188.3,366.751,187.684Z" transform="translate(-328.079 -129.44)"/>
      <path id="Tracé_175" data-name="Tracé 175" class="cls-7" d="M309.988,213.17l7.993-5.772a6.106,6.106,0,0,1,2.107-1.132c1.646-.377,3.257.653,4.634,1.629l16.764,11.855a5.155,5.155,0,0,0,.078-4.365c1.539.479,2.658,1.76,3.993,2.658a4.481,4.481,0,0,0-.6-.222,5.143,5.143,0,0,1-.078,4.359l-16.764-11.855c-1.377-.976-2.994-2.006-4.634-1.623a6.089,6.089,0,0,0-2.107,1.126l-7.993,5.778c-1.329.958-3.065,1.952-4.5,1.156a2.628,2.628,0,0,1-1.251-2.311A8.676,8.676,0,0,0,309.988,213.17Z" transform="translate(-307.628 -160.237)"/>
    </g>
    <path id="Tracé_176" data-name="Tracé 176" class="cls-2" d="M617.532,278.5s-34.307,2.748-41.132-2.113l31.385-4.838Z" transform="translate(-313.866 -133.255)"/>
    <path id="Tracé_177" data-name="Tracé 177" class="cls-1" d="M617.532,278.5s-34.307,2.748-41.132-2.113l31.385-4.838Z" transform="translate(-313.866 -133.255)"/>
    <path id="Tracé_178" data-name="Tracé 178" class="cls-2" d="M614.182,274.809l-9.609-6.083s-28.667,8.238-36.522,4.838l7.993-11.214,28.4,5.538Z" transform="translate(-310.515 -129.563)"/>
    <path id="Tracé_179" data-name="Tracé 179" class="cls-2" d="M564.73,139.6a16.842,16.842,0,0,0-2.521,4.425c-.275.844-.413,1.724-.647,2.581a19.829,19.829,0,0,1-2.994,5.933c-2.952,4.293-6.64,8.436-7.382,13.591a22.921,22.921,0,0,0,.539,7.652,20.658,20.658,0,0,0,1.413,4.832c.76,1.641,1.892,3.083,2.76,4.67a33.163,33.163,0,0,1,2,4.838,23.732,23.732,0,0,0,2.449-3.592,4.616,4.616,0,0,1,3.485-2.293c1.664,0,3.036,1.377,4.682,1.593a1.335,1.335,0,0,0,.766-.072c.6-.281.647-1.09.6-1.736-.473-4.52-3.06-8.981-1.838-13.364,1.126-4.053,5.149-6.586,7.263-10.22,1.533-2.64,1.988-5.754,2.395-8.783a54.425,54.425,0,0,0,.8-10.921c-.114-1.838-1.575-13.453-4.245-12.238-.928.419-1.736,2.2-2.317,2.994l-2.395,3.395Z" transform="translate(-303.693 -75.01)"/>
    <path id="Tracé_180" data-name="Tracé 180" class="cls-2" d="M286.782,231.79l-19.261,15.681L242.74,243.04l16.686-13.1Z" transform="translate(-97.406 -92.273)"/>
    <path id="Tracé_181" data-name="Tracé 181" class="cls-1" d="M287.942,230.16l-19.261,15.681L243.9,241.41l16.686-13.1Z" transform="translate(-97.871 -91.619)"/>
    <path id="Tracé_182" data-name="Tracé 182" class="cls-2" d="M287.708,228.766l-19.261,15.675-24.787-4.425,16.692-13.106Z" transform="translate(-97.775 -91.057)"/>
    <path id="Tracé_183" data-name="Tracé 183" class="cls-1" d="M288.638,225.74l-19.267,15.681L244.59,236.99l16.692-13.1Z" transform="translate(-98.148 -89.846)"/>
    <path id="Tracé_184" data-name="Tracé 184" class="cls-2" d="M288.4,224.35l-19.261,15.681L244.36,235.6l16.686-13.1Z" transform="translate(-98.056 -89.288)"/>
    <path id="Tracé_185" data-name="Tracé 185" class="cls-2" d="M876.191,623.791h0a3.1,3.1,0,0,1,4.449,2.545l1.072,13.9-6.358,1.149L872,631.334Z" transform="translate(-432.483 -274.475)"/>
    <path id="Tracé_186" data-name="Tracé 186" class="cls-2" d="M439.754,467.941l-97.311,49.383a6.772,6.772,0,0,0,.048,12.088L552.075,634.59a25.439,25.439,0,0,0,23.907-.6l88.276-49.778a6.772,6.772,0,0,0-.4-11.974L445.736,467.875A6.772,6.772,0,0,0,439.754,467.941Z" transform="translate(-218.502 -211.769)"/>
    <path id="Tracé_187" data-name="Tracé 187" class="cls-2" d="M341.626,536.56l-3.047,2.263-.24,10.837a4.5,4.5,0,0,0,2.443,4.107L553.945,663.154a3.173,3.173,0,0,0,4.628-2.82v-15.74Z" transform="translate(-218.337 -239.597)"/>
    <path id="Tracé_188" data-name="Tracé 188" class="cls-2" d="M439.749,446.959l-97.311,49.377a6.772,6.772,0,0,0,.03,12.088L552.069,613.6a25.458,25.458,0,0,0,23.907-.6l88.276-49.784a6.771,6.771,0,0,0-.4-11.974L445.73,446.887A6.772,6.772,0,0,0,439.749,446.959Z" transform="translate(-218.496 -203.348)"/>
    <path id="Tracé_189" data-name="Tracé 189" class="cls-2" d="M331.319,421.86,224.1,476.3l184.281,92.144,110.572-56.124Z" transform="translate(-89.926 -169.286)"/>
    <ellipse id="Ellipse_33" data-name="Ellipse 33" class="cls-2" cx="11.31" cy="6.7" rx="11.31" ry="6.7" transform="translate(374.579 369.007)"/>
    <ellipse id="Ellipse_34" data-name="Ellipse 34" class="cls-2" cx="1.048" cy="1.048" rx="1.048" ry="1.048" transform="translate(178.569 268.907)"/>
    <ellipse id="Ellipse_35" data-name="Ellipse 35" class="cls-2" cx="1.257" cy="1.257" rx="1.257" ry="1.257" transform="translate(175.222 276.864)"/>
    <line id="Ligne_10" data-name="Ligne 10" class="cls-4" y1="5.862" x2="12.567" transform="translate(181.084 270.164)"/>
    <rect id="Rectangle_14" data-name="Rectangle 14" class="cls-2" width="62.519" height="21.554" rx="10.777" transform="translate(247.603 329.151) rotate(-30)"/>
    <rect id="Rectangle_15" data-name="Rectangle 15" class="cls-2" width="62.519" height="21.554" rx="10.777" transform="translate(279.335 345.318) rotate(-30)"/>
    <rect id="Rectangle_16" data-name="Rectangle 16" class="cls-2" width="62.519" height="21.554" rx="10.777" transform="translate(218.865 310.592) rotate(-30)"/>
  </g>
</svg>
