<svg xmlns="http://www.w3.org/2000/svg" viewBox="0 0 414.365 326.836">
  <defs>
    <style>
      .cls-1, .cls-3, .cls-4 {
        fill: #fff;
      }

      .cls-1, .cls-10, .cls-4, .cls-7, .cls-8, .cls-9 {
        stroke: #281c64;
        stroke-width: 2px;
      }

      .cls-1, .cls-5 {
        opacity: 0.1;
      }

      .cls-2 {
        opacity: 0.7;
      }

      .cls-6 {
        opacity: 0.5;
      }

      .cls-10, .cls-7, .cls-8, .cls-9 {
        stroke-miterlimit: 10;
      }

      .cls-10, .cls-8, .cls-9 {
        fill: none;
      }

      .cls-9 {
        opacity: 0.6;
      }

      .cls-10 {
        opacity: 0.3;
      }
    </style>
  </defs>
  <g id="Groupe_12" data-name="Groupe 12" transform="translate(1.336 1.289)">
    <path id="Tracé_271" data-name="Tracé 271" class="cls-1" d="M206.264,8.611c14.6-4.9,30.045-9,45.825-8.581,23.2.624,45.5,11.828,56.508,28.385,9.3,14.032,10.538,30.522,14.6,46.125,5,19.223,14.5,37.465,24.627,55.3,5.442,9.58,11.184,19.365,12.129,29.894,1.3,14.618-7.249,29.232-20.725,39.028S307.82,213.783,289.8,215c-9.586.645-19.605.147-28.14-3.431-9.028-3.772-15.631-10.671-24.7-14.4-8.4-3.452-18.195-3.9-27.619-3.389a148.792,148.792,0,0,0-36.008,6.394c-13.136,4.071-25.343,9.934-38.451,14.065s-27.76,6.466-41.192,3.146c-12.611-3.117-22.613-10.8-31.634-18.586a350.082,350.082,0,0,1-40.414-41.06c-8.147-9.8-15.736-20.149-19.375-31.6-6.95-21.9,2.361-46.687,23.2-61.765,17.26-12.5,40.48-18.016,63.219-21.368,20.737-3.088,44.729-3.394,63.789-11.256C170.662,24.23,187.2,15.005,206.264,8.611Z" transform="translate(71.288 0) rotate(19)"/>
    <g id="Groupe_27" data-name="Groupe 27" class="cls-2" transform="translate(150.832 57.853)">
      <path id="Tracé_244" data-name="Tracé 244" class="cls-3" d="M510.495,199H335.632A5.653,5.653,0,0,0,330,204.67V325.021a5.653,5.653,0,0,0,5.632,5.67h60.141v20.776h-2.742a2.866,2.866,0,0,0-2.856,2.874v4.168h5.6v2.466h54.581v-2.466h5.6v-4.168a2.866,2.866,0,0,0-2.856-2.874h-2.579v-.18h-.176v-20.6h60.154a5.653,5.653,0,0,0,5.632-5.67V204.67a5.653,5.653,0,0,0-5.632-5.67Z" transform="translate(-330 -199)"/>
    </g>
    <rect id="Rectangle_25" data-name="Rectangle 25" class="cls-4" width="53.87" height="31.769" transform="translate(217.133 185.967)"/>
    <g id="Groupe_28" data-name="Groupe 28" class="cls-5" transform="translate(216.961 184.585)">
      <path id="Tracé_245" data-name="Tracé 245" class="cls-3" d="M522.733,570.49h51.857c.625-2.718,1.126-4.49,1.126-4.49H521.5S522.056,567.764,522.733,570.49Z" transform="translate(-521.5 -566)"/>
    </g>
    <path id="Tracé_246" data-name="Tracé 246" class="cls-4" d="M225.28,3H397.87a5.56,5.56,0,0,1,5.56,5.56V114.883H219.72V8.56A5.56,5.56,0,0,1,225.28,3Z" transform="translate(-67.506 55.889)"/>
    <path id="Tracé_247" data-name="Tracé 247" class="cls-4" d="M512.15,543.266H339.56a5.56,5.56,0,0,1-5.56-5.56V526H517.71v11.706A5.56,5.56,0,0,1,512.15,543.266Z" transform="translate(-181.786 -355.228)"/>
    <circle id="Ellipse_53" data-name="Ellipse 53" class="cls-4" cx="3.108" cy="3.108" r="3.108" transform="translate(240.961 176.297)"/>
    <path id="Tracé_248" data-name="Tracé 248" class="cls-4" d="M394.541,436h59.278a2.821,2.821,0,0,1,2.821,2.821v4.085H391.72v-4.085A2.821,2.821,0,0,1,394.541,436Z" transform="translate(-180.112 -227.588)"/>
    <g id="Groupe_29" data-name="Groupe 29" class="cls-6" transform="translate(187.09 82.412)">
      <rect id="Rectangle_26" data-name="Rectangle 26" class="cls-3" width="113.956" height="64.837" rx="4.5"/>
    </g>
    <rect id="Rectangle_27" data-name="Rectangle 27" class="cls-4" width="111.034" height="63.525" rx="4.5" transform="translate(188.551 82.888)"/>
    <g id="Groupe_30" data-name="Groupe 30" class="cls-6" transform="translate(219.481 92.008)">
      <rect id="Rectangle_28" data-name="Rectangle 28" class="cls-3" width="12.238" height="11.016" rx="4.5"/>
    </g>
    <rect id="Rectangle_29" data-name="Rectangle 29" class="cls-4" width="33.044" height="1.223" rx="0.611" transform="translate(235.391 92.008)"/>
    <rect id="Rectangle_30" data-name="Rectangle 30" class="cls-4" width="27.466" height="1.223" rx="0.611" transform="translate(235.391 95.683)"/>
    <g id="Groupe_31" data-name="Groupe 31" class="cls-6" transform="translate(219.481 109.143)">
      <rect id="Rectangle_31" data-name="Rectangle 31" class="cls-3" width="12.238" height="11.016" rx="4.5"/>
    </g>
    <rect id="Rectangle_32" data-name="Rectangle 32" class="cls-4" width="33.044" height="1.223" rx="0.611" transform="translate(235.391 109.143)"/>
    <rect id="Rectangle_33" data-name="Rectangle 33" class="cls-4" width="33.044" height="1.223" rx="0.611" transform="translate(235.391 112.814)"/>
    <g id="Groupe_32" data-name="Groupe 32" class="cls-6" transform="translate(219.481 126.278)">
      <rect id="Rectangle_34" data-name="Rectangle 34" class="cls-3" width="12.238" height="11.016" rx="4.5"/>
    </g>
    <rect id="Rectangle_35" data-name="Rectangle 35" class="cls-4" width="33.044" height="1.223" rx="0.611" transform="translate(235.391 126.278)"/>
    <rect id="Rectangle_36" data-name="Rectangle 36" class="cls-4" width="33.264" height="1.223" rx="0.611" transform="translate(235.391 129.949)"/>
    <line id="Ligne_11" data-name="Ligne 11" class="cls-7" y1="7.597" transform="translate(244.069 64.759)"/>
    <line id="Ligne_12" data-name="Ligne 12" class="cls-7" y1="9.969" transform="translate(244.069 75.164)"/>
    <circle id="Ellipse_54" data-name="Ellipse 54" class="cls-4" cx="1.381" cy="1.381" r="1.381" transform="translate(242.687 83.752)"/>
    <circle id="Ellipse_55" data-name="Ellipse 55" class="cls-8" cx="1.381" cy="1.381" r="1.381" transform="translate(242.687 72.356)"/>
    <line id="Ligne_13" data-name="Ligne 13" class="cls-7" y1="7.597" transform="translate(244.069 64.759)"/>
    <line id="Ligne_14" data-name="Ligne 14" class="cls-7" y1="9.969" transform="translate(244.069 75.164)"/>
    <circle id="Ellipse_56" data-name="Ellipse 56" class="cls-4" cx="1.381" cy="1.381" r="1.381" transform="translate(242.687 83.752)"/>
    <circle id="Ellipse_57" data-name="Ellipse 57" class="cls-8" cx="1.381" cy="1.381" r="1.381" transform="translate(242.687 72.356)"/>
    <line id="Ligne_15" data-name="Ligne 15" class="cls-7" y2="10.705" transform="translate(244.069 154.197)"/>
    <line id="Ligne_16" data-name="Ligne 16" class="cls-7" y2="9.969" transform="translate(244.069 144.528)"/>
    <circle id="Ellipse_58" data-name="Ellipse 58" class="cls-4" cx="1.381" cy="1.381" r="1.381" transform="translate(242.687 143.147)"/>
    <line id="Ligne_17" data-name="Ligne 17" class="cls-7" x1="10.878" transform="translate(171.033 116.039)"/>
    <line id="Ligne_18" data-name="Ligne 18" class="cls-7" x1="9.969" transform="translate(181.438 116.039)"/>
    <circle id="Ellipse_59" data-name="Ellipse 59" class="cls-4" cx="1.381" cy="1.381" r="1.381" transform="translate(190.026 114.658)"/>
    <g id="Groupe_33" data-name="Groupe 33" class="cls-5" transform="translate(217.306 208.24)">
      <rect id="Rectangle_37" data-name="Rectangle 37" class="cls-3" width="53.87" height="1.036"/>
    </g>
    <g id="Groupe_34" data-name="Groupe 34" class="cls-2" transform="translate(82.459 118.459)">
      <path id="Tracé_249" data-name="Tracé 249" class="cls-3" d="M187.763,440.656h-25l.345-2.811c7.065-6.346,11.634-23.244,11.634-23.244a2.325,2.325,0,0,0-.3.06,17.574,17.574,0,0,0-9.154,4.586l.877-7.48c13.052-2.811,18.229-20.077,18.229-20.077-8.329,1.848-13.523,4.707-16.748,7.421l1.285-10.988c8.826,3.028,17.956-13.06,17.956-13.06l-.345-.072.172-.111-.262.093c-9.755-2.1-14.968,3.473-16.662,5.791l.128-1.078q-.387,1.036-.753,2.03h0v.028q-1.036,2.807-1.9,5.546h0q-.75,2.335-1.4,4.628V391.9A13.88,13.88,0,0,0,155.1,379.484s1.088,21.434,9.3,17.926h0c-.76,3.108-1.381,6.1-1.92,9h0q-.514,2.835-.9,5.525l-.049.055.049-.041-.021.141h0q-.345,2.442-.587,4.759c.159-2.977-.383-11.575-10.515-19.656,0,0-13.468,23.668,9.5,28.316l.152.131-.035-.107.207.045.093-1.215a127.565,127.565,0,0,0,.08,15.229h0c.024.345.048.691.072,1.018H135.237c-9.648,19.956,5.359,30.894,5.359,30.894h41.438C198.126,451.223,187.763,440.656,187.763,440.656ZM160.829,417.976Z" transform="translate(-132.002 -374.509)"/>
    </g>
    <path id="Tracé_250" data-name="Tracé 250" class="cls-9" d="M214.194,463.61s-6.561-28.661,7.942-65.61" transform="translate(-102.383 -271.429)"/>
    <path id="Tracé_251" data-name="Tracé 251" class="cls-4" d="M137.075,563h50.762s10.014,12.777-5.525,31.77H142.257S127.753,581.647,137.075,563Z" transform="translate(-50.817 -379.451)"/>
    <path id="Tracé_252" data-name="Tracé 252" class="cls-4" d="M234.361,390.715s5.045-8.981,17.131-6.216c0,0-9.99,17.01-18.993,11.44Z" transform="translate(-115.337 -262.243)"/>
    <path id="Tracé_253" data-name="Tracé 253" class="cls-4" d="M208.9,409.1a13.034,13.034,0,0,0-10.4-11.6s1.036,20.028,8.981,16.748Z" transform="translate(-93.077 -271.101)"/>
    <path id="Tracé_254" data-name="Tracé 254" class="cls-4" d="M217.461,444.265s1.848-9.621,21.185-13.765c0,0-6.167,19.9-22.076,19.1Z" transform="translate(-104.907 -292.706)"/>
    <path id="Tracé_255" data-name="Tracé 255" class="cls-4" d="M188.373,464.883s2.036-10.059-10.052-19.383c0,0-13.122,22.332,9.489,26.531Z" transform="translate(-77.388 -302.526)"/>
    <path id="Tracé_256" data-name="Tracé 256" class="cls-4" d="M213.5,509.479s-1.4-14.217,13.792-16.979c0,0-5.55,19.852-13.813,23.392Z" transform="translate(-102.873 -333.296)"/>
    <path id="Tracé_257" data-name="Tracé 257" class="cls-10" d="M233,396.741S246.122,386.727,251.647,385" transform="translate(-115.664 -262.918)"/>
    <path id="Tracé_258" data-name="Tracé 258" class="cls-10" d="M216.5,449.493s15.885-16.921,22.1-18.993" transform="translate(-104.862 -292.706)"/>
    <path id="Tracé_259" data-name="Tracé 259" class="cls-10" d="M198.5,397.5s9.669,13.122,8.981,16.575" transform="translate(-93.077 -271.101)"/>
    <path id="Tracé_260" data-name="Tracé 260" class="cls-10" d="M185.5,445.5s5.18,23.482,9.324,26.589" transform="translate(-84.566 -302.526)"/>
    <path id="Tracé_261" data-name="Tracé 261" class="cls-10" d="M213.5,515.982s8.288-22.791,13.813-23.482" transform="translate(-102.898 -333.296)"/>
    <g id="Groupe_35" data-name="Groupe 35" class="cls-5" transform="translate(85.912 183.549)">
      <path id="Tracé_262" data-name="Tracé 262" class="cls-3" d="M193.107,563H142.345c-.114.231-.225.463-.345.691h49.381s9.769,12.47-4.972,31.079h1.174C203.121,575.777,193.107,563,193.107,563Z" transform="translate(-142 -563)"/>
    </g>
    <rect id="Rectangle_38" data-name="Rectangle 38" class="cls-4" width="335.457" height="11.372" transform="translate(76.34 215.181)"/>
    <rect id="Rectangle_39" data-name="Rectangle 39" class="cls-4" width="307.027" height="4.651" transform="translate(90.553 226.552)"/>
    <rect id="Rectangle_40" data-name="Rectangle 40" class="cls-1" width="307.027" height="1.551" transform="translate(90.553 226.552)"/>
    <line id="Ligne_19" data-name="Ligne 19" class="cls-7" x2="2.072" transform="translate(314.686 116.039)"/>
    <line id="Ligne_20" data-name="Ligne 20" class="cls-7" x2="15.498" transform="translate(296.384 116.039)"/>
    <circle id="Ellipse_60" data-name="Ellipse 60" class="cls-4" cx="1.381" cy="1.381" r="1.381" transform="translate(295.003 114.658)"/>
    <circle id="Ellipse_61" data-name="Ellipse 61" class="cls-8" cx="1.381" cy="1.381" r="1.381" transform="translate(311.924 114.658)"/>
    <g id="Groupe_36" data-name="Groupe 36" class="cls-2" transform="translate(359.059 155.423)">
      <path id="Tracé_263" data-name="Tracé 263" class="cls-3" d="M965.46,537.605l.035-.052q.107-.166.211-.346l.038-.066q.1-.169.19-.346l.031-.06c.069-.135.135-.269.193-.411h0a8.214,8.214,0,0,0,.324-.867l.035-.114c.031-.107.06-.214.09-.321l.035-.152q.035-.145.06-.293a.933.933,0,0,1,.031-.166c.01-.055.031-.193.045-.293a.763.763,0,0,1,.021-.169,1.838,1.838,0,0,0,.028-.318V504.5h-4.783V490.518h-5.867V504.5h-4.047V484.42h-5.868V504.5h-2.207V481.55h-5.867V504.5H933V533.02a8.534,8.534,0,0,0,8.633,8.426h16.573a8.7,8.7,0,0,0,6.99-3.473h0Q965.325,537.789,965.46,537.605Z" transform="translate(-933 -481.55)"/>
    </g>
    <rect id="Rectangle_41" data-name="Rectangle 41" class="cls-4" width="5.525" height="34.532" transform="translate(364.93 168.701)"/>
    <rect id="Rectangle_42" data-name="Rectangle 42" class="cls-4" width="5.525" height="11.396" transform="translate(364.93 157.305)"/>
    <rect id="Rectangle_43" data-name="Rectangle 43" class="cls-4" width="5.525" height="34.532" transform="translate(372.527 171.463)"/>
    <rect id="Rectangle_44" data-name="Rectangle 44" class="cls-4" width="5.525" height="11.396" transform="translate(372.527 160.068)"/>
    <rect id="Rectangle_45" data-name="Rectangle 45" class="cls-4" width="5.525" height="34.532" transform="translate(381.851 177.334)"/>
    <rect id="Rectangle_46" data-name="Rectangle 46" class="cls-4" width="5.525" height="11.396" transform="translate(381.851 165.938)"/>
    <path id="Tracé_264" data-name="Tracé 264" class="cls-4" d="M821.72,352h31.769v27.453a8.115,8.115,0,0,1-8.115,8.115H829.835a8.115,8.115,0,0,1-8.115-8.115Z" transform="translate(-461.624 -172.595)"/>
    <g id="Groupe_37" data-name="Groupe 37" class="cls-5" transform="translate(360.096 179.405)">
      <path id="Tracé_265" data-name="Tracé 265" class="cls-3" d="M936,551v1.381h30.388v27.453a8.078,8.078,0,0,1-1.727,5,8.1,8.1,0,0,0,3.108-6.385V551Z" transform="translate(-936 -551)"/>
    </g>
  </g>
</svg>
