<svg xmlns="http://www.w3.org/2000/svg" viewBox="0 0 1007.924 806.293">
  <defs>
    <style>
      .cls-1, .cls-2, .cls-4 {
        fill: #fff;
        stroke: #281c64;
        stroke-width: 2px;
      }

      .cls-1 {
        opacity: 0.1;
      }

      .cls-3 {
        fill: #281c64;
      }

      .cls-4 {
        opacity: 0.2;
      }
    </style>
  </defs>
  <g id="undraw_teaching" transform="translate(1.645 1)">
    <rect id="Rectangle_1" data-name="Rectangle 1" class="cls-1" width="91.252" height="27.588" rx="7.43" transform="translate(205.71 137.939)"/>
    <rect id="Rectangle_2" data-name="Rectangle 2" class="cls-1" width="91.252" height="27.588" rx="7.43" transform="translate(301.207 165.527)"/>
    <rect id="Rectangle_3" data-name="Rectangle 3" class="cls-1" width="91.252" height="27.588" rx="7.43" transform="translate(396.703 193.115)"/>
    <rect id="Rectangle_4" data-name="Rectangle 4" class="cls-1" width="91.252" height="27.588" rx="7.43" transform="translate(205.71 96.558)"/>
    <rect id="Rectangle_5" data-name="Rectangle 5" class="cls-1" width="91.252" height="27.588" rx="7.43" transform="translate(301.207 124.146)"/>
    <rect id="Rectangle_6" data-name="Rectangle 6" class="cls-1" width="91.252" height="27.588" rx="7.43" transform="translate(396.703 151.733)"/>
    <rect id="Rectangle_7" data-name="Rectangle 7" class="cls-1" width="91.252" height="27.588" rx="7.43" transform="translate(502.811 137.939)"/>
    <rect id="Rectangle_8" data-name="Rectangle 8" class="cls-1" width="91.252" height="27.588" rx="7.43" transform="translate(598.307 165.527)"/>
    <rect id="Rectangle_9" data-name="Rectangle 9" class="cls-1" width="91.252" height="27.588" rx="7.43" transform="translate(693.804 193.115)"/>
    <rect id="Rectangle_10" data-name="Rectangle 10" class="cls-1" width="91.252" height="27.588" rx="7.43" transform="translate(502.811 96.558)"/>
    <rect id="Rectangle_11" data-name="Rectangle 11" class="cls-1" width="91.252" height="27.588" rx="7.43" transform="translate(598.307 124.146)"/>
    <rect id="Rectangle_12" data-name="Rectangle 12" class="cls-1" width="91.252" height="27.588" rx="7.43" transform="translate(693.804 151.733)"/>
    <rect id="Rectangle_13" data-name="Rectangle 13" class="cls-1" width="91.252" height="27.588" rx="7.43" transform="translate(205.71 41.382)"/>
    <rect id="Rectangle_14" data-name="Rectangle 14" class="cls-1" width="91.252" height="27.588" rx="7.43" transform="translate(301.207 68.97)"/>
    <rect id="Rectangle_15" data-name="Rectangle 15" class="cls-1" width="91.252" height="27.588" rx="7.43" transform="translate(396.703 96.558)"/>
    <rect id="Rectangle_16" data-name="Rectangle 16" class="cls-1" width="91.252" height="27.588" rx="7.43" transform="translate(205.71)"/>
    <rect id="Rectangle_17" data-name="Rectangle 17" class="cls-1" width="91.252" height="27.588" rx="7.43" transform="translate(301.207 27.588)"/>
    <rect id="Rectangle_18" data-name="Rectangle 18" class="cls-1" width="91.252" height="27.588" rx="7.43" transform="translate(396.703 55.176)"/>
    <rect id="Rectangle_19" data-name="Rectangle 19" class="cls-1" width="91.252" height="27.588" rx="7.43" transform="translate(502.811 41.382)"/>
    <rect id="Rectangle_20" data-name="Rectangle 20" class="cls-1" width="91.252" height="27.588" rx="7.43" transform="translate(598.307 68.97)"/>
    <rect id="Rectangle_21" data-name="Rectangle 21" class="cls-1" width="91.252" height="27.588" rx="7.43" transform="translate(693.804 96.558)"/>
    <rect id="Rectangle_22" data-name="Rectangle 22" class="cls-1" width="91.252" height="27.588" rx="7.43" transform="translate(502.811)"/>
    <rect id="Rectangle_23" data-name="Rectangle 23" class="cls-1" width="91.252" height="27.588" rx="7.43" transform="translate(598.307 27.588)"/>
    <rect id="Rectangle_24" data-name="Rectangle 24" class="cls-1" width="91.252" height="27.588" rx="7.43" transform="translate(693.804 55.176)"/>
    <rect id="Rectangle_25" data-name="Rectangle 25" class="cls-1" width="91.252" height="27.588" rx="7.43" transform="translate(205.71 629.216)"/>
    <rect id="Rectangle_26" data-name="Rectangle 26" class="cls-1" width="91.252" height="27.588" rx="7.43" transform="translate(301.207 656.804)"/>
    <rect id="Rectangle_27" data-name="Rectangle 27" class="cls-1" width="91.252" height="27.588" rx="7.43" transform="translate(396.703 684.392)"/>
    <rect id="Rectangle_28" data-name="Rectangle 28" class="cls-1" width="91.252" height="27.588" rx="7.43" transform="translate(205.71 587.834)"/>
    <rect id="Rectangle_29" data-name="Rectangle 29" class="cls-1" width="91.252" height="27.588" rx="7.43" transform="translate(301.207 615.422)"/>
    <rect id="Rectangle_30" data-name="Rectangle 30" class="cls-1" width="91.252" height="27.588" rx="7.43" transform="translate(396.703 643.01)"/>
    <rect id="Rectangle_31" data-name="Rectangle 31" class="cls-1" width="91.252" height="27.588" rx="7.43" transform="translate(502.811 629.216)"/>
    <rect id="Rectangle_32" data-name="Rectangle 32" class="cls-1" width="91.252" height="27.588" rx="7.43" transform="translate(598.307 656.804)"/>
    <rect id="Rectangle_33" data-name="Rectangle 33" class="cls-1" width="91.252" height="27.588" rx="7.43" transform="translate(693.804 684.392)"/>
    <rect id="Rectangle_34" data-name="Rectangle 34" class="cls-1" width="91.252" height="27.588" rx="7.43" transform="translate(502.811 587.834)"/>
    <rect id="Rectangle_35" data-name="Rectangle 35" class="cls-1" width="91.252" height="27.588" rx="7.43" transform="translate(598.307 615.422)"/>
    <rect id="Rectangle_36" data-name="Rectangle 36" class="cls-1" width="91.252" height="27.588" rx="7.43" transform="translate(693.804 643.01)"/>
    <rect id="Rectangle_37" data-name="Rectangle 37" class="cls-1" width="91.252" height="27.588" rx="7.43" transform="translate(205.71 532.659)"/>
    <rect id="Rectangle_38" data-name="Rectangle 38" class="cls-1" width="91.252" height="27.588" rx="7.43" transform="translate(301.207 560.246)"/>
    <rect id="Rectangle_39" data-name="Rectangle 39" class="cls-1" width="91.252" height="27.588" rx="7.43" transform="translate(396.703 587.834)"/>
    <rect id="Rectangle_40" data-name="Rectangle 40" class="cls-1" width="91.252" height="27.588" rx="7.43" transform="translate(205.71 491.277)"/>
    <rect id="Rectangle_41" data-name="Rectangle 41" class="cls-1" width="91.252" height="27.588" rx="7.43" transform="translate(301.207 518.865)"/>
    <rect id="Rectangle_42" data-name="Rectangle 42" class="cls-1" width="91.252" height="27.588" rx="7.43" transform="translate(396.703 546.453)"/>
    <rect id="Rectangle_43" data-name="Rectangle 43" class="cls-1" width="91.252" height="27.588" rx="7.43" transform="translate(502.811 532.659)"/>
    <rect id="Rectangle_44" data-name="Rectangle 44" class="cls-1" width="91.252" height="27.588" rx="7.43" transform="translate(598.307 560.246)"/>
    <rect id="Rectangle_45" data-name="Rectangle 45" class="cls-1" width="91.252" height="27.588" rx="7.43" transform="translate(693.804 587.834)"/>
    <rect id="Rectangle_46" data-name="Rectangle 46" class="cls-1" width="91.252" height="27.588" rx="7.43" transform="translate(502.811 491.277)"/>
    <rect id="Rectangle_47" data-name="Rectangle 47" class="cls-1" width="91.252" height="27.588" rx="7.43" transform="translate(598.307 518.865)"/>
    <rect id="Rectangle_48" data-name="Rectangle 48" class="cls-1" width="91.252" height="27.588" rx="7.43" transform="translate(693.804 546.453)"/>
    <ellipse id="Ellipse_1" data-name="Ellipse 1" class="cls-1" cx="465.28" cy="38.199" rx="465.28" ry="38.199" transform="translate(46.549 727.896)"/>
    <path id="Tracé_1" data-name="Tracé 1" class="cls-2" d="M215.64,258.514c43.875,19.014,69.086,58.359,69.086,58.359s-45.934,8.489-89.82-10.515S125.82,248,125.82,248,171.754,239.5,215.64,258.514Z" transform="translate(-125.82 -60.306)"/>
    <path id="Tracé_2" data-name="Tracé 2" class="cls-2" d="M338.089,190.893C351.661,168.611,374.771,158,374.771,158s1.061,25.4-12.468,47.621-36.692,32.819-36.692,32.819S324.508,213.048,338.089,190.893Z" transform="translate(-113.619 -65.687)"/>
    <path id="Tracé_3" data-name="Tracé 3" class="cls-2" d="M243.581,215.387c9.709,34.655,36.469,57.468,36.469,57.468s11.025-33.392,1.316-68.057-36.48-57.468-36.48-57.468S233.861,180.722,243.581,215.387Z" transform="translate(-118.873 -66.338)"/>
    <rect id="Rectangle_49" data-name="Rectangle 49" class="cls-2" width="773.522" height="387.292" rx="7.21" transform="translate(126.13 147.489)"/>
    <path id="Tracé_4" data-name="Tracé 4" class="cls-1" d="M118.87,482H892.392v15.693a7.65,7.65,0,0,1-7.65,7.65H126.52a7.65,7.65,0,0,1-7.65-7.65Z" transform="translate(7.26 29.437)"/>
    <rect id="Rectangle_50" data-name="Rectangle 50" class="cls-2" width="57.298" height="28.649" rx="2.5" transform="translate(201.466 482.788)"/>
    <rect id="Rectangle_51" data-name="Rectangle 51" class="cls-2" width="39.26" height="4.244" rx="2" transform="translate(274.68 507.193)"/>
    <path id="Tracé_5" data-name="Tracé 5" class="cls-2" d="M355.46,282.428c28,5.167,56.566,0,84.451-3.5l84.748-10.611c3.427-.435,8.414-2.483,10.43,1.708,1.135,2.345.371,7.428.456,10.123.223,7.427.2,14.855,0,22.283-.382,14.2-1.422,28.362-2.748,42.5-2.578,27.662-6.229,55.176-8.054,82.944-.934,14.133-1.4,28.309-.987,42.443.1,3.374.233,6.748.435,10.112.223,3.767,1.91,9.359-2.2,11.873-2.345,1.443-6.961,1.369-9.645,1.793-4.244.668-8.489,1.2-12.818,1.634-28.532,2.854-57.436,1.666-86.074,1.5l-86.477-.446-21.094-.117c-1.91,0-8.8,1.146-9.974-1.125-.5-.966.828-5.486,1.061-6.7q.488-2.992,1.061-5.974c2.462-13.953,5.369-27.821,8.3-41.679,6.292-29.71,12.733-59.569,15.322-89.915,1.284-15.226.435-30.591,2.005-45.785.732-7.056,1.6-22.8,10.993-23.428,7.958-.531,16.15,0,24.129,0a1.592,1.592,0,1,0,0-3.183c-7.534,0-15.078-.2-22.611-.053-5.008.1-8.489,1.284-10.876,5.889-6.1,11.82-5.475,27.588-5.666,40.491-.456,30.888-5.2,61.118-11.375,91.327-3.109,15.205-6.462,30.357-9.55,45.573-1.454,7.268-2.844,14.558-4.117,21.869-.594,3.48-3.6,11.152-.955,14.346s10.77,1.475,14.409,1.5l25.317.149,48.512.276c31.344.18,62.794,1.061,94.128.138,14.961-.446,30.771-1.061,45.34-4.637,4.34-1.061,6.43-3.056,6.6-7.682.255-7.173-.913-14.569-1.061-21.773-1.061-61.648,13.423-122.437,11.937-184.107-.1-4.191,1.486-14.76-3.1-17.3-2.059-1.146-4.732-.52-6.9-.265-4.138.478-8.266,1.061-12.4,1.549l-53.743,6.706c-17.179,2.122-34.347,4.414-51.558,6.366-18.219,2.122-36.618,3.385-54.773,0-2.005-.371-2.865,2.7-.849,3.067Z" transform="translate(-115.637 -59.2)"/>
    <path id="Tracé_6" data-name="Tracé 6" class="cls-2" d="M320.088,317.512l212.024-10.4c2.048-.106,2.058-3.289,0-3.183l-212.024,10.4C318.051,314.424,318.04,317.607,320.088,317.512Z" transform="translate(-114.049 -56.774)"/>
    <path id="Tracé_7" data-name="Tracé 7" class="cls-2" d="M381.643,292.59a5.305,5.305,0,0,0,1.878,8.563c2.854,1.305,6.207.212,9.04-.5,4.244-1.061,8.489-2.005,12.85-2.78a175.237,175.237,0,0,1,28.745-2.674c4.393-.053,8.754.149,13.147.34,3.183.127,6.611.382,9.306-1.592,3.077-2.249,4.075-6.642,1.061-9.38-4.244-3.873-13.391-1.623-18.293-1.22a410.222,410.222,0,0,0-52.905,7.894c-1.995.424-1.157,3.5.849,3.067q17.264-3.724,34.793-5.984,8.616-1.061,17.264-1.793c2.716-.223,5.433-.424,8.149-.584,1.061-.064,2.186-.18,3.268-.149,3.364.074,3.756-.531,1.74,3.533-1.793,3.6-1.22,3.183-4.329,3.067-1.316,0-2.631-.149-3.947-.212q-4.043-.17-8.085-.18-8.605,0-17.168.828c-4.839.467-9.666,1.125-14.452,1.974-2.992.531-5.963,1.146-8.924,1.825-1.305.308-2.621.626-3.926.955-.626.17-1.263.318-1.889.478q-3.48,1.21-5.931-3.183c1.422-1.475-.817-3.735-2.249-2.249Z" transform="translate(-110.285 -58.093)"/>
    <path id="Tracé_8" data-name="Tracé 8" class="cls-2" d="M420.692,334.821c-15.354-.594-31.938,3.555-42.05,15.916-7.916,9.666-12.425,26.251-4.043,37.138,9.009,11.672,28.766,9.613,40.682,4.637,12.606-5.305,26.4-16.245,30.188-29.933,4.722-17.094-10.611-30.018-26.58-30.209a1.593,1.593,0,0,0,0,3.183c9.1.106,18.038,4.011,22.283,12.489,4.446,8.934.615,18.314-5.305,25.466-9.486,11.385-24.32,19.969-39.43,19.725-9.072-.138-19.1-3.247-21.911-12.818-2.313-7.756-.552-16.234,3.48-23.11,8.722-14.855,26.474-19.885,42.751-19.248,2.048.074,2.048-3.109,0-3.183Z" transform="translate(-110.901 -55.037)"/>
    <path id="Tracé_9" data-name="Tracé 9" class="cls-2" d="M403.731,357.512a4.138,4.138,0,0,0-5.56,4.244c.318,4.138,4.881,5.305,8.308,5.061,2.96-.255,6.42-1.348,5.38-5.051a4.753,4.753,0,0,0-2.589-2.992,6,6,0,0,0-2.992-.371c-.393,0-3.99,1.316-2.462-.265l-2.5-.329a2.61,2.61,0,0,1,.764,2.122,1.6,1.6,0,0,0,2.387,1.369,2.122,2.122,0,0,1,2.875,2.483,1.6,1.6,0,0,0,2.907,1.231c1.061-1.91,2.345-5.709.753-7.7-1.061-1.348-3.109-.944-4.382-.159a15.35,15.35,0,0,0-2.186,1.878c-1.284,1.135-2.122,1.666-1.645-.509.8-3.958,4.573-7.109,8.022-8.69l-2.334-1.793a33.551,33.551,0,0,1-6.419,12.574l2.716,1.125a7.088,7.088,0,0,1,4.329-6.908h-1.56l.828,1.358c-.308,2.005,2.759,2.865,3.067.838.4-2.621-1.252-6.027-4.319-4.743-3.661,1.528-5.56,5.719-5.486,9.454,0,1.273,1.8,2.26,2.727,1.135a37.413,37.413,0,0,0,7.226-14,1.613,1.613,0,0,0-2.345-1.793,17.8,17.8,0,0,0-7.725,6.727c-1.295,2.122-2.918,5.433-1.6,7.873a3.374,3.374,0,0,0,4.616,1.305,12.417,12.417,0,0,0,2.663-2.122c.393-.35.828-.955,1.348-1.061.467-.318.446-.138-.074.562a5.783,5.783,0,0,1-.923,3.1l2.907,1.22a5.305,5.305,0,0,0-7.544-6.08l2.4,1.379a5.783,5.783,0,0,0-1.2-3.746,1.613,1.613,0,0,0-2.493-.329c-1.613,1.687-1.921,4.605.106,6.165,1.517,1.157,2.26,0,3.926-.265,5.656-.732,2.356,1.814.361,1.9a7.524,7.524,0,0,1-2.663-.191q-3.321-1.125-.414-2.9c1.9.775,2.716-2.3.849-3.066Z" transform="translate(-109.188 -54.151)"/>
    <path id="Tracé_10" data-name="Tracé 10" class="cls-2" d="M401.911,362.493c1.305,4.244-4.085,5.645-6.642,7.109a14.791,14.791,0,0,0-4.594,4.021C388,377.21,387,381.772,386.122,386.07c-.4,2.005,2.663,2.854,3.077.849a36.078,36.078,0,0,1,2.685-9.157c1.91-3.8,4.647-5.072,8.213-7.024s6.144-4.976,4.881-9.093C404.383,359.691,401.306,360.53,401.911,362.493Z" transform="translate(-109.925 -53.317)"/>
    <path id="Tracé_11" data-name="Tracé 11" class="cls-2" d="M406.977,360.37a3.077,3.077,0,0,0-2.653,3.183c0,1.263.838,2.069,1.411,3.077a24.3,24.3,0,0,1,3.077,6.7c.509,2.281,1.008,6.366-.18,8.489-2.2,3.937-6.165,3.183-9.55,3.183-3.183,0-5.645,1.061-5.539-3.374.064-2.494,1.8-5.019,3.183-6.982l-2.907-.382a55.464,55.464,0,0,1,.966,9.826c0,1.475,2.26,2.292,2.96.8a61.469,61.469,0,0,0,4.043-11.184l-3.13-.424.552,8.064a1.6,1.6,0,0,0,2.96.806,3.608,3.608,0,0,0,.8-1.432c.106-.5-.87-3.862-1.263-2.663l3.12.424.223-7.661-3.183.424a15.853,15.853,0,0,1,.594,6.685c-.2,1.772,2.78,2.175,3.183.424l1.995-10.292-2.907.371a7.035,7.035,0,0,1,.541,4.584c-.233,2.037,2.95,2.016,3.183,0a11.183,11.183,0,0,0-.976-6.186,1.6,1.6,0,0,0-2.907.382L402.563,377.5l3.13.424a17.358,17.358,0,0,0-.711-7.523,1.592,1.592,0,0,0-3.12.414l-.223,7.661a1.6,1.6,0,0,0,3.13.424l.17-.52a1.613,1.613,0,0,0-.4-1.549c-3.3-3.586-3.968,2.122-5.114,3.7l2.971.806-.552-8.064c-.117-1.719-2.663-2.25-3.13-.424A57.044,57.044,0,0,1,395,383.279l2.971.806a60,60,0,0,0-1.061-10.674c-.276-1.464-2.2-1.4-2.907-.382-2.122,3.056-5.793,9.73-2.96,13.391,2.472,3.183,10.25,1.952,13.571,1.751,5.242-.3,7.141-3.618,7.714-8.563a20.966,20.966,0,0,0-.393-7.088c-.286-1.252-3.183-9.189-4.053-9.03,2.016-.371,1.157-3.448-.849-3.077Z" transform="translate(-109.685 -53.327)"/>
    <path id="Tracé_12" data-name="Tracé 12" class="cls-2" d="M400.728,367.362l-8.69,11.47,2.748,1.6,6.366-9.21-2.907-1.231L395.073,382.1a1.6,1.6,0,0,0,2.907,1.231,55.925,55.925,0,0,1,4.849-6.823l-2.653-1.549a17.327,17.327,0,0,1-4,7.353l2.663,1.549A14.218,14.218,0,0,1,400,379.618c.817-1.836-1.772-3.459-2.748-1.613a37.356,37.356,0,0,1-3.066,4.817l2.907.382.647-3.024-2.907-.382.467,2.653a1.6,1.6,0,0,0,2.663.7,31.684,31.684,0,0,0,6.366-9.6h-2.738a14.291,14.291,0,0,1,1.5,4.244c.382,1.91,2.918,1.2,3.12-.424a86.273,86.273,0,0,0,.7-10.717H403.72v6.674c0,1.73,2.833,2.239,3.13.424a12.16,12.16,0,0,1,1.56-4.563H405.62a7.077,7.077,0,0,1,1.061,3.608,1.592,1.592,0,1,0,3.183,0l.4-2.122H407.2c.308,1.878,1.475,12.457-2.674,11.216-.7-.17-.9-.127-.6.117l.944-2.016,2.218-4.7-2.971-.806c.191,2.186.393,5.305-.923,7.173-1.061,1.517-4.329,2.122-6,1.231a10.611,10.611,0,0,1-2.769-2.907L392.25,382.1c1.761,1.284,4.616,4.435,6.886,4.616,1.73.138,3.183-1.295,4.319-2.44a18.494,18.494,0,0,0,5.189-13.614,1.592,1.592,0,1,0-3.183,0v3.629a1.592,1.592,0,0,0,3.183,0v-8.9a1.592,1.592,0,1,0-3.183,0,38.211,38.211,0,0,1-.552,6.366l3.13.424a73.275,73.275,0,0,1-.35-7.629,1.592,1.592,0,0,0-3.12-.424c-.477,2.027-1.061,4.021-1.623,6.006l2.907-.382-.223-.849c-.149-2.027-3.332-2.037-3.183,0a5.825,5.825,0,0,0,.658,2.462c.615,1.295,2.536.838,2.907-.382.6-1.995,1.146-3.99,1.623-6.006l-3.13-.424a73.3,73.3,0,0,0,.35,7.629c.159,1.634,2.791,2.334,3.12.424a43.854,43.854,0,0,0,.668-7.258h-3.183v8.9h3.183V370.62h-3.183a15.3,15.3,0,0,1-3.873,10.908,13.044,13.044,0,0,1-1.337,1.316c-.753.722-1.443.615-2.048-.329-1.507-.626-3.066-2.239-4.382-3.183s-3.12.923-2.186,2.175c2.44,3.247,6.08,6.865,10.611,5.305,4.764-1.687,5.411-8.138,5.051-12.383-.117-1.411-2.228-2.366-2.96-.8-1.061,2.239-2.122,4.467-3.183,6.717a5.934,5.934,0,0,0-.955,2.8c.35,2.387,3.247,1.995,5.029,1.857,6.908-.52,5.815-10.314,5.019-15.237-.265-1.634-2.642-1.379-3.066,0a9.37,9.37,0,0,0-.52,3.013h3.183a12.616,12.616,0,0,0-1.5-5.21,1.6,1.6,0,0,0-2.748,0,15.471,15.471,0,0,0-1.889,5.305l3.183.424V366.63a1.592,1.592,0,1,0-3.183,0,86.284,86.284,0,0,1-.7,10.717l3.13-.424a18.215,18.215,0,0,0-1.814-4.966,1.6,1.6,0,0,0-2.748,0,29.029,29.029,0,0,1-5.868,8.955l2.663.7-.467-2.653c-.244-1.411-2.239-1.454-2.907-.382a6.982,6.982,0,0,0-.966,5.475c.265,1.507,2.175,1.348,2.907.382a37.238,37.238,0,0,0,3.066-4.807l-2.748-1.613a18.1,18.1,0,0,0-1.486,5c-.191,1.4,1.475,2.865,2.663,1.549a21.221,21.221,0,0,0,4.817-8.764c.393-1.443-1.6-2.812-2.663-1.549a60.791,60.791,0,0,0-5.305,7.427l2.907,1.231,3.236-12.064a1.6,1.6,0,0,0-2.907-1.231l-6.366,9.221c-1.188,1.708,1.539,3.183,2.748,1.6l8.658-11.46c1.231-1.634-1.528-3.183-2.748-1.613Z" transform="translate(-109.602 -53.168)"/>
    <path id="Tracé_13" data-name="Tracé 13" class="cls-2" d="M527.908,409.646c12.733-7.788,22.855-19.407,34.1-29.126,12.2-10.536,25.01-20.351,38.2-29.646,25.614-18.038,52.513-34.177,79.39-50.274a1.592,1.592,0,0,0-1.6-2.748c-26.877,16.1-53.786,32.2-79.4,50.274-12.086,8.489-23.885,17.486-35.2,27.036-12.308,10.4-23.269,23.344-37.138,31.737-1.751,1.061-.149,3.82,1.6,2.748Z" transform="translate(-101.41 -57.157)"/>
    <path id="Tracé_14" data-name="Tracé 14" class="cls-2" d="M711.913,253.851c-13.794,1.4-28.649,4.913-37.138,16.977-7.332,10.377-7.173,28.479-.286,39.132,7.82,12.107,23.8,12.542,36.214,8.627s25.264-10.781,25.147-25.614c-.064-7.958-2.939-16.245-6.112-23.46-2.738-6.228-7.587-11.672-14.929-10.982-2.027.191-2.048,3.374,0,3.183,9.836-.913,13,10.77,15.333,18.144,2.122,6.886,4.085,15.035.753,21.879s-11.364,10.335-18.229,12.839c-7.428,2.7-15.587,4.34-23.344,2.122-15.364-4.3-19.609-23.768-15.184-37.583,5.093-15.916,23.131-20.6,37.827-22.081,2.016-.2,2.037-3.385,0-3.183Z" transform="translate(-92.628 -59.833)"/>
    <path id="Tracé_15" data-name="Tracé 15" class="cls-2" d="M731.913,369.851c-13.794,1.4-28.649,4.913-37.138,16.977-7.332,10.377-7.173,28.479-.286,39.132,7.82,12.107,23.8,12.542,36.214,8.627s25.264-10.78,25.147-25.614c-.064-7.958-2.939-16.245-6.112-23.46-2.738-6.229-7.587-11.672-14.929-10.982-2.027.191-2.048,3.374,0,3.183,9.836-.913,13,10.77,15.333,18.144,2.122,6.886,4.085,15.035.753,21.879s-11.364,10.335-18.229,12.839c-7.428,2.7-15.587,4.34-23.344,2.122-15.364-4.3-19.609-23.768-15.184-37.583,5.093-15.916,23.131-20.6,37.827-22.081,2.016-.2,2.037-3.385,0-3.183Z" transform="translate(-91.407 -52.749)"/>
    <path id="Tracé_16" data-name="Tracé 16" class="cls-2" d="M689.872,286.184l10.048,11.46a1.6,1.6,0,0,0,2.653-.711c2.122-5.581,1.719-11.364,2.218-17.232a56.735,56.735,0,0,1,4.51-17.582A59.345,59.345,0,0,1,733.047,234.9c1.751-1.061.149-3.82-1.6-2.748a62.306,62.306,0,0,0-24.012,26.378,60.976,60.976,0,0,0-5.305,16.839c-1.061,6.886-.1,14.1-2.642,20.712l2.663-.711-10-11.438c-1.358-1.539-3.6.721-2.249,2.249Z" transform="translate(-91.395 -61.173)"/>
    <path id="Tracé_17" data-name="Tracé 17" class="cls-2" d="M532.689,415.165q82.1-2.5,164.233-1.061a1.593,1.593,0,0,0,0-3.183q-82.116-1.464-164.233,1.061C530.641,412.046,530.63,415.229,532.689,415.165Z" transform="translate(-101.065 -50.273)"/>
    <path id="Tracé_18" data-name="Tracé 18" class="cls-2" d="M698.218,385.493a328.852,328.852,0,0,1,53.765,27.015c1.74,1.061,3.342-1.666,1.6-2.748a332.352,332.352,0,0,0-54.475-27.333c-1.9-.753-2.727,2.324-.838,3.067Z" transform="translate(-90.924 -51.987)"/>
    <path id="Tracé_19" data-name="Tracé 19" class="cls-2" d="M731.976,371.75a129.982,129.982,0,0,0-31.206,79.082c-.085,2.048,3.1,2.048,3.183,0A126.416,126.416,0,0,1,734.226,374c1.326-1.549-.913-3.809-2.25-2.249Z" transform="translate(-90.706 -52.664)"/>
    <path id="Tracé_20" data-name="Tracé 20" class="cls-2" d="M330.321,404.294l118.6-1.549,13.635-.18c2.451,0,4.9-.085,7.353-.1,3.448,0,5.772,2.865,5.709,6.366-.159,7.428-4.828,7.162-10.94,7.428l-14.738.668-60.014,2.642c-10.749.478-21.508,1.061-32.257,1.432-9.7.3-28.14-2.865-23.832-16.977.594-1.963-2.472-2.8-3.077-.849-2.122,6.939,1.634,13.985,7.682,17.624,8.584,5.157,19.9,3.406,29.37,2.982l73.681-3.342,17.89-.8c4.584-.212,10.961.722,15.173-1.411,4.945-2.494,5.815-12.393,2.7-16.563-1.6-2.122-3.852-2.313-6.366-2.409-6.6-.255-13.316.18-19.927.265l-36.734.488-83.941,1.061a1.593,1.593,0,0,0,0,3.183Z" transform="translate(-113.427 -50.957)"/>
    <g id="Michel" transform="translate(681.147 238.339)">
      <path id="Tracé_21" data-name="Tracé 21" class="cls-2" d="M782.668,772.794c-2.674,1.676-5.73,2.621-8.489,4.1s-5.443,3.693-6.229,6.748a4.244,4.244,0,0,0,.138,2.886,5.6,5.6,0,0,0,2.971,2.356,45.085,45.085,0,0,0,35.663.4,46.969,46.969,0,0,1,6.154-2.44,39.992,39.992,0,0,1,7.884-.807,60.609,60.609,0,0,0,8.287-1.061,7.29,7.29,0,0,0,3.756-1.56,6.971,6.971,0,0,0,1.687-4.053,33.371,33.371,0,0,0-5.305-23.641,7.99,7.99,0,0,0-2.313-2.451,8.926,8.926,0,0,0-3.682-.987c-5.305-.647-10.865-1.836-16.224-1.963-3.841-.085-5.772,1.74-8.489,4.382C792.865,760.315,789.586,768.475,782.668,772.794Z" transform="translate(-767.762 -267.851)"/>
      <path id="Tracé_22" data-name="Tracé 22" class="cls-2" d="M855.536,772.038c0,5.2.626,10.706,3.777,14.855a19.62,19.62,0,0,0,5.157,4.51c6.664,4.244,15.492,5.8,22.516,2.207a6.686,6.686,0,0,0,2.8-2.356c1.061-1.846.5-4.149-.1-6.186L879.527,749.84c-6.568,1.008-16.224,1.719-22.06,5.051C853.233,757.3,855.536,767.39,855.536,772.038Z" transform="translate(-762.439 -267.881)"/>
      <path id="Tracé_23" data-name="Tracé 23" class="cls-2" d="M776.489,566.881c-.615,1.942-2.844,2.844-4.064,4.478-1.432,1.921-1.284,4.584-.764,6.918a18.292,18.292,0,0,0,4.658,9.178,11,11,0,0,0,9.55,3.247,7.958,7.958,0,0,0,6.483-7.141,13.519,13.519,0,0,0-1-4.594l-7.237-20.924a.792.792,0,0,0-1.305-.573c-1.708.806-5.136,1.655-6.133,3.427S777.211,564.961,776.489,566.881Z" transform="translate(-767.546 -279.639)"/>
      <path id="Tracé_24" data-name="Tracé 24" class="cls-2" d="M773,566.337c2.642-.414,4.955-1.963,7.427-2.982s5.571-1.411,7.65.286c.594.488,1.167,1.157,1.942,1.146a75.965,75.965,0,0,0-4.754-15.11,1.179,1.179,0,0,0-.414-.584,1.2,1.2,0,0,0-.9,0l-7.141,1.867c-2.642.69-2.95.478-2.748,3.077C774.114,555.2,774.708,566.337,773,566.337Z" transform="translate(-767.442 -280.146)"/>
      <path id="Tracé_25" data-name="Tracé 25" class="cls-2" d="M772.506,422.964c-1.061,1.634-1.061,3.671-1.061,5.592,0,9.391.1,18.834,1.486,28.129.329,2.228.743,4.457.955,6.706a77.36,77.36,0,0,1,.149,9.412l-1.061,40.851c-.127,5-.382,10.367-3.47,14.293a6.833,6.833,0,0,0-1.241,4.531c.806,10.25,2.5,20.415,4.191,30.548a18.876,18.876,0,0,1,17.126.817,188.515,188.515,0,0,0,8.8-51.993c.244-8.69-.127-17.433,1.21-26.017,2.239-14.452,1.326-29.275-.318-43.812-.52-4.605-1.623-9.348-4.573-12.913A19.577,19.577,0,0,0,784.082,423C780.156,421.967,776.644,423.028,772.506,422.964Z" transform="translate(-767.733 -287.87)"/>
      <path id="Tracé_26" data-name="Tracé 26" class="cls-1" d="M772.506,422.964c-1.061,1.634-1.061,3.671-1.061,5.592,0,9.391.1,18.834,1.486,28.129.329,2.228.743,4.457.955,6.706a77.36,77.36,0,0,1,.149,9.412l-1.061,40.851c-.127,5-.382,10.367-3.47,14.293a6.833,6.833,0,0,0-1.241,4.531c.806,10.25,2.5,20.415,4.191,30.548a18.876,18.876,0,0,1,17.126.817,188.515,188.515,0,0,0,8.8-51.993c.244-8.69-.127-17.433,1.21-26.017,2.239-14.452,1.326-29.275-.318-43.812-.52-4.605-1.623-9.348-4.573-12.913A19.577,19.577,0,0,0,784.082,423C780.156,421.967,776.644,423.028,772.506,422.964Z" transform="translate(-767.733 -287.87)"/>
      <path id="Tracé_27" data-name="Tracé 27" class="cls-2" d="M784.68,535.413A187.4,187.4,0,0,0,795.842,643.9a29.423,29.423,0,0,1,2.589,8.022c.584,5.2-1.814,10.2-3.183,15.226-3.183,11.438-1.347,23.62.69,35.323q1.273,7.322,2.621,14.632c.881,4.754,1.73,9.921-.477,14.229,1.9,7.916,3.024,15.757,4.923,23.673a4.5,4.5,0,0,1,.18,1.942,5.719,5.719,0,0,1-1.942,2.6,11.608,11.608,0,0,0-2.96,11.109c4.849-3.48,11.608-2.26,17.147,0s10.993,5.305,16.977,5.305c-.87-7.024-1.708-14.4.881-20.988,1.507-3.82,4.159-7.428,4.085-11.513-.074-3.661-2.313-6.929-2.854-10.547a26.692,26.692,0,0,1,.255-6.748c1.422-12.988-.191-26.1-1.8-39.069a23.34,23.34,0,0,0-1.783-7.427c-.753-1.528-1.878-2.992-1.857-4.7,0-1.984,1.6-3.6,2.2-5.486,1.061-3.48-.891-8.213,2.048-10.367,7.746-5.687,4.775-19.269,4.605-28.872q-.2-12.425-1.061-24.829a105.757,105.757,0,0,1,5.857,42.8c-.339,4.754-.965,9.751.891,14.144,1.422,3.374,4.244,6.154,5.008,9.73.478,2.207.138,4.488.244,6.738s.87,4.7,2.812,5.836c.149,10.229,1.061,21.168,1.22,31.4a77.445,77.445,0,0,0,1.273,15.6,19.878,19.878,0,0,1,.785,5.029,21.016,21.016,0,0,1-1.676,6.186,35.472,35.472,0,0,0,5.305,32.734c2.5-4.446,7.725-6.8,12.818-7.173s10.123.912,15.057,2.207a29.487,29.487,0,0,1,3.523-17.932,14.674,14.674,0,0,0,1.857-3.99c.573-2.7-.764-5.38-1.486-8.043-1.178-4.244-.764-8.818-.488-13.253a209.715,209.715,0,0,0-1.963-44.48,37.682,37.682,0,0,0-2.026-8.489c-.382-.976-.849-1.91-1.167-2.9a22.83,22.83,0,0,1-.849-5.433l-1.22-16.977c-.86-11.895,3.045-23.641,5.772-35.249,1.22-5.2,2.547-10.388,3.364-15.672,1.114-7.194,1.295-14.547,2.929-21.646,1.464-6.366,4.106-12.574,4.658-19.1.849-10.112-3.353-19.885-7.427-29.158-1.7-3.82-8.117-3.438-12.245-4.117-29.275-4.807-60.11-4.838-87.719,6a21.826,21.826,0,0,0-7.544,5.21Z" transform="translate(-766.941 -281.849)"/>
      <path id="Tracé_28" data-name="Tracé 28" class="cls-2" d="M804.618,357.6l3.247,12.627a33.737,33.737,0,0,1,1.454,8.924,6.59,6.59,0,0,1-.711,3.183,7.589,7.589,0,0,1-2.016,2.059c-2.218,1.687-3.756,5.624-6.292,6.791,1.305,2.271,3.109.8,5.465,1.931,4.149,2.016,7.947,4.913,12.446,5.91,4.244.934,8.7.053,12.913-1.061,5.974-1.623,11.916-3.862,16.722-7.778s7.544-7.374,7.523-13.56c-5.305.626-10.027-4.732-12.372-9.55a25.946,25.946,0,0,1-1.783-5.719l-2.844-12.51c-3.1.679-5.624,2.9-8.584,4.053s-6.462,1.263-9.751,1.411a105.041,105.041,0,0,0-17.359,2.249c-.785.159-1.772.658-1.581,1.422" transform="translate(-765.774 -292.37)"/>
      <path id="Tracé_29" data-name="Tracé 29" class="cls-1" d="M804.618,357.6l3.247,12.627a33.737,33.737,0,0,1,1.454,8.924,6.59,6.59,0,0,1-.711,3.183,7.589,7.589,0,0,1-2.016,2.059c-2.218,1.687-3.756,5.624-6.292,6.791,1.305,2.271,3.109.8,5.465,1.931,4.149,2.016,7.947,4.913,12.446,5.91,4.244.934,8.7.053,12.913-1.061,5.974-1.623,11.916-3.862,16.722-7.778s7.544-7.374,7.523-13.56c-5.305.626-10.027-4.732-12.372-9.55a25.946,25.946,0,0,1-1.783-5.719l-2.844-12.51c-3.1.679-5.624,2.9-8.584,4.053s-6.462,1.263-9.751,1.411a105.041,105.041,0,0,0-17.359,2.249c-.785.159-1.772.658-1.581,1.422" transform="translate(-765.774 -292.37)"/>
      <ellipse id="Ellipse_2" data-name="Ellipse 2" class="cls-2" cx="28.097" cy="31.097" rx="28.097" ry="31.097" transform="translate(23.689 9)"/>
      <path id="Tracé_30" data-name="Tracé 30" class="cls-2" d="M826.678,381.978a25.468,25.468,0,0,1,6.366-8.489c3.958-3.47,9.369-6.282,10.3-11.46l8.573,9.985a4.616,4.616,0,0,1,1.061,1.634,4.117,4.117,0,0,1-.806,3.3c-2.122,3.385-5.465,5.8-8.627,8.255a262.023,262.023,0,0,0-20.786,18.335,2.123,2.123,0,0,1-1.114.679,2.006,2.006,0,0,1-1.157-.329,48.268,48.268,0,0,1-14.823-12.054c-.308-.371-.69-.8-1.188-.764a1.527,1.527,0,0,0-.8.414c-2.854,2.334-5.974,5.125-9.635,4.764,4.743-3.406,7.427-9.093,8.425-14.855a28.07,28.07,0,0,1,1.21-5.8,6.059,6.059,0,0,1,4.138-3.926c-2.313,3.533-.732,8.542,2.377,11.4a23.428,23.428,0,0,0,10.526,5.1C824.333,388.843,825.394,384.758,826.678,381.978Z" transform="translate(-766.156 -291.565)"/>
      <path id="Tracé_31" data-name="Tracé 31" class="cls-2" d="M791.11,538.489c4,.987,7.788,2.663,11.672,3.9a55.78,55.78,0,0,0,21.911,2.3,11.832,11.832,0,0,0,6.367-2.027c.5-.4.955-.881,1.485-1.252a10.389,10.389,0,0,1,2.854-1.178c9.73-3.045,17.879-9.613,25.784-16.043.255-.212.541-.478.52-.817a1.062,1.062,0,0,0-.318-.6L857.226,518c-10.908,1.857-22.081,1.157-33.148.881a48.123,48.123,0,0,0-6.812.18c-2.186.255-4.34.807-6.494,1.273-8.181,1.783-16.542,2.462-24.829,3.629a3.83,3.83,0,0,0-1.645.509,3.7,3.7,0,0,0-.881.976l-2.907,4.085a12.853,12.853,0,0,0-2.441,4.679c-.679,3.183.743,4.244,3.448,3.83A25.193,25.193,0,0,1,791.11,538.489Z" transform="translate(-767.143 -282.04)"/>
      <path id="Tracé_32" data-name="Tracé 32" class="cls-2" d="M824.065,398.1a51.689,51.689,0,0,0-10.94-8.542,15.5,15.5,0,0,0-5.305-2.122,6.621,6.621,0,0,0-5.433,1.337c-.944.838-1.539,2.005-2.451,2.886a12.192,12.192,0,0,1-3.884,2.2,68.885,68.885,0,0,0-13.645,7.778,31.3,31.3,0,0,0-6.186,5.709c-4.807,6.154-5.528,14.526-5.4,22.336.1,5.433,5.305,9.465,8.892,13.529a99.7,99.7,0,0,1,9.1,12.733c1.931,3.056,3.947,6.366,3.7,10.006-.2,2.982-1.942,5.783-1.666,8.754.1,1.061.435,2.037.531,3.067.191,2.122-.647,4.244-.859,6.366-.286,3,.69,5.984.743,9.009a28.649,28.649,0,0,1-.785,6.144c-2.037,9.7-4.594,19.449-4.075,29.349l-5.878,1.061a4.966,4.966,0,0,1-1.135,7.926c9.178,3.067,19.1,1.517,28.829,1.507,8.054,0,16.075,1.061,24.118.913s16.341-1.6,22.972-6.154c1.8-1.231,3.459-2.674,5.358-3.746a26.433,26.433,0,0,1,8.117-2.653,80.546,80.546,0,0,1,15.916-1.422c2.61,0,5.454.106,7.534-1.464,2.292-1.74,2.876-4.892,3.183-7.746.308-3.013.5-6.037.552-9.062a39.068,39.068,0,0,0-.371-7.046,46.168,46.168,0,0,0-1.241-5.051l-4-14.091c-1.655-5.815.647-12.192,1.135-18.219.117-1.422.138-3.077-.955-3.99-.393-.329-.934-.552-1.061-1.061a1.814,1.814,0,0,1,.255-1.422c2.122-4.244,5.305-7.99,8.213-11.82a241.564,241.564,0,0,0,13.582-20.871,67.155,67.155,0,0,0-17.974-40.193c-2.122-2.3-4.552-4.51-7.523-5.549a22.282,22.282,0,0,0-5.984-.966c-8.319-.562-16.977-1.061-24.224-5.242a4.6,4.6,0,0,0-1.729-.732c-1.6-.18-2.769,1.4-3.809,2.653-2.674,3.183-6.61,5.008-10.07,7.353C833.764,385.929,828.723,391.956,824.065,398.1Z" transform="translate(-767.576 -290.985)"/>
      <path id="Tracé_33" data-name="Tracé 33" class="cls-2" d="M906.492,425.976c1.655,5.242,1.5,10.844,2.037,16.309a63.468,63.468,0,0,0,1.73,9.772,15.6,15.6,0,0,0,2.016,4.976c.955,1.4,2.324,2.536,2.929,4.117a9.941,9.941,0,0,1,.435,3.311l.127,7.321a26.327,26.327,0,0,1-1.73,11.4l-4.573,13.911c-2.472,7.534-5.008,15.184-9.465,21.741a6.271,6.271,0,0,1-2.727,2.557,13.249,13.249,0,0,1-2.748.424,7.067,7.067,0,0,0-5.825,6.865,16.12,16.12,0,0,0-3.915-4l-9.306-7.427c-3.183-2.589-6.5-5.221-10.367-6.717a28.107,28.107,0,0,0,19.545-23.619,10.612,10.612,0,0,1,1.061-4.647c.774-1.252,2.207-2.207,2.313-3.682.127-1.857-1.974-3.258-1.974-5.114,0-1.231.912-2.249,1.316-3.406a8.553,8.553,0,0,0,0-4.361l-1.284-7.13a5.443,5.443,0,0,0-.637-2.037,13.175,13.175,0,0,0-1.592-1.677c-2.207-2.472-1.231-6.366,0-9.412A89.96,89.96,0,0,1,894.7,426.422a65.063,65.063,0,0,0,4.318-6.175c1.125-1.952,1.379-4.658,2.568-6.366C903.118,417.891,905.187,421.849,906.492,425.976Z" transform="translate(-761.817 -288.399)"/>
      <path id="Tracé_34" data-name="Tracé 34" class="cls-2" d="M865.146,505.436a5.113,5.113,0,0,0-1.21,1.273,10.727,10.727,0,0,1-4.807,3.427c1.061.764,2.027,1.517,3.024,2.292a132.518,132.518,0,0,1,20.16,19.28c.669-2.387,4.669-2.218,5.645-4.5a4.4,4.4,0,0,0,.212-2.037,62.15,62.15,0,0,0-1.528-10.611,12.01,12.01,0,0,0-2.122-4.966c-1.485-1.793-3.8-2.653-6.006-3.4C875.173,505.033,868.542,503.388,865.146,505.436Z" transform="translate(-762.182 -282.867)"/>
      <path id="Tracé_35" data-name="Tracé 35" class="cls-2" d="M853.287,513.435c-3.183,2.356-5.974,5.305-9.55,6.918-2.525,1.146-5.4,1.645-7.608,3.353,1.2,2.642,4.319,4.011,7.215,3.9a17.148,17.148,0,0,0,8.075-2.96c1.9-1.167,4.128-2.525,6.2-1.708.318,1.613-1.061,3.13-1.061,4.764s1.358,2.822,2.7,3.682c6.366,4.106,14.558,3.767,22.145,3.289a2,2,0,0,0,1.22-.361,1.921,1.921,0,0,0,.456-1.4c.1-1.677.138-3.342.149-5.019a7.194,7.194,0,0,0-3.077-7.088,86.6,86.6,0,0,0-13.263-9.39C862.211,508.714,857.479,510.316,853.287,513.435Z" transform="translate(-763.586 -282.526)"/>
      <path id="Tracé_36" data-name="Tracé 36" class="cls-2" d="M827.253,326.114c-4.711.562-8.138,4.244-7.661,8.245s4.679,6.759,9.39,6.186,8.138-4.244,7.661-8.234S831.965,325.552,827.253,326.114Zm1.6,13.327c-3.99.478-7.544-1.867-7.958-5.242s2.5-6.494,6.483-6.971,7.544,1.867,7.958,5.242-2.5,6.494-6.483,6.971Z" transform="translate(-764.599 -293.763)"/>
      <path id="Tracé_37" data-name="Tracé 37" class="cls-2" d="M805.614,328.714c-4.711.562-8.138,4.244-7.661,8.234s4.679,6.759,9.391,6.2S815.481,338.9,815,334.9,810.325,328.152,805.614,328.714Zm1.6,13.316c-3.99.478-7.544-1.868-7.947-5.231s2.493-6.494,6.483-6.982,7.544,1.867,7.947,5.242-2.5,6.494-6.483,6.971Z" transform="translate(-765.921 -293.605)"/>
      <path id="Tracé_38" data-name="Tracé 38" class="cls-2" d="M663.3,259.64l10.239,2.186-1.008,2.7-9.656-2.833Z" transform="translate(-640.663 -222.483)"/>
      <path id="Tracé_39" data-name="Tracé 39" class="cls-2" d="M717.613,253.18l-9.443,4.552,1.623,2.377,8.711-5.04Z" transform="translate(-637.897 -222.877)"/>
      <path id="Tracé_40" data-name="Tracé 40" class="cls-2" d="M687.31,261.109l7.183-.859-.371,1.783-6.165.414Z" transform="translate(-639.171 -222.445)"/>
      <path id="Tracé_54" data-name="Tracé 54" class="cls-3" d="M28.285,52.328S35.005,65.441,42.4,63.785s3.044-8.829,13.046-9.381,3.478,6.622,12.611,4.414S81.971,46.128,81.971,46.128s3.914,17.658-3.044,28.142-10.436,12.691-20,14.9S35.875,83.1,32.831,77.029,28.285,52.328,28.285,52.328Z" transform="translate(-2.742)"/>
    </g>
    <path id="Tracé_42" data-name="Tracé 42" class="cls-2" d="M912.81,682c0,53.308,33.445,96.452,74.774,96.452" transform="translate(-77.756 -33.685)"/>
    <path id="Tracé_43" data-name="Tracé 43" class="cls-2" d="M983.28,778.524c0-53.913,37.328-97.534,83.453-97.534" transform="translate(-73.452 -33.746)"/>
    <path id="Tracé_44" data-name="Tracé 44" class="cls-2" d="M938.35,686.56c0,50.645,21.328,91.624,47.674,91.624" transform="translate(-76.196 -33.406)"/>
    <path id="Tracé_45" data-name="Tracé 45" class="cls-2" d="M983.28,780.083c0-68.885,43.143-124.634,96.452-124.634" transform="translate(-73.452 -35.306)"/>
    <ellipse id="Ellipse_3" data-name="Ellipse 3" class="cls-1" cx="18.59" cy="3.141" rx="18.59" ry="3.141" transform="translate(888.001 756.916)"/>
    <path id="Tracé_46" data-name="Tracé 46" class="cls-2" d="M968.46,773.88s10.611-.329,13.794-2.6,16.309-5,17.1-1.348,15.916,18.155,3.958,18.25-27.821-1.868-31-3.809S968.46,773.88,968.46,773.88Z" transform="translate(-74.357 -28.423)"/>
    <path id="Tracé_47" data-name="Tracé 47" class="cls-4" d="M1003.539,786.581c-11.969.1-27.811-1.868-31-3.809-2.43-1.475-3.4-6.791-3.724-9.231h-.35s.668,8.552,3.862,10.494,19.036,3.9,31,3.809c3.459,0,4.648-1.263,4.584-3.077C1007.433,785.87,1006.17,786.559,1003.539,786.581Z" transform="translate(-74.357 -28.094)"/>
    <path id="Tracé_48" data-name="Tracé 48" class="cls-2" d="M148.31,711.36c0,42.443,26.6,76.737,59.484,76.737" transform="translate(-124.446 -31.891)"/>
    <path id="Tracé_49" data-name="Tracé 49" class="cls-2" d="M204.37,788.146c0-42.889,29.71-77.6,66.391-77.6" transform="translate(-121.023 -31.941)"/>
    <path id="Tracé_50" data-name="Tracé 50" class="cls-2" d="M168.62,715c0,40.321,16.977,72.9,37.933,72.9" transform="translate(-123.206 -31.669)"/>
    <path id="Tracé_51" data-name="Tracé 51" class="cls-2" d="M204.37,789.387c0-54.8,34.326-99.157,76.737-99.157" transform="translate(-121.023 -33.182)"/>
    <ellipse id="Ellipse_4" data-name="Ellipse 4" class="cls-1" cx="14.791" cy="2.504" rx="14.791" ry="2.504" transform="translate(65.978 765.861)"/>
    <path id="Tracé_52" data-name="Tracé 52" class="cls-2" d="M192.58,784.456s8.436-.265,10.971-2.122,12.988-3.979,13.614-1.061,12.68,14.441,3.183,14.516-22.134-1.486-24.67-3.024S192.58,784.456,192.58,784.456Z" transform="translate(-121.743 -27.71)"/>
    <path id="Tracé_53" data-name="Tracé 53" class="cls-4" d="M220.486,794.6c-9.55.074-22.134-1.486-24.67-3.035-1.931-1.167-2.7-5.4-2.96-7.343h-.276s.531,6.8,3.066,8.351,15.152,3.1,24.67,3.024c2.748,0,3.7-1,3.65-2.451C223.585,793.992,222.534,794.534,220.486,794.6Z" transform="translate(-121.743 -27.442)"/>
  </g>
</svg>
